<svg width="108" height="108" viewBox="0 0 108 108" fill="none" xmlns="http://www.w3.org/2000/svg">
<g filter="url(#filter0_d_2001_122)">
<rect x="12" y="8" width="84" height="84" rx="25" fill="#89D7FF"/>
<path d="M69.2806 48.2672L46.6542 25.7177C45.694 24.7608 44.1373 24.7608 43.177 25.7177L39.7195 29.1635C38.7609 30.1189 38.7609 31.6686 39.7178 32.6256L57.1071 49.9999L39.7177 67.3746C38.7599 68.3316 38.7609 69.8809 39.72 70.8367L43.1775 74.2825C44.1374 75.2392 45.6937 75.2392 46.6536 74.2825L69.2806 51.7326C69.7608 51.2541 70 50.627 70 49.9999C70 49.3728 69.7608 48.7457 69.2806 48.2672Z" fill="white"/>
</g>
<defs>
<filter id="filter0_d_2001_122" x="0" y="0" width="108" height="108" filterUnits="userSpaceOnUse" color-interpolation-filters="sRGB">
<feFlood flood-opacity="0" result="BackgroundImageFix"/>
<feColorMatrix in="SourceAlpha" type="matrix" values="0 0 0 0 0 0 0 0 0 0 0 0 0 0 0 0 0 0 127 0" result="hardAlpha"/>
<feOffset dy="4"/>
<feGaussianBlur stdDeviation="6"/>
<feComposite in2="hardAlpha" operator="out"/>
<feColorMatrix type="matrix" values="0 0 0 0 0 0 0 0 0 0 0 0 0 0 0 0 0 0 0.08 0"/>
<feBlend mode="normal" in2="BackgroundImageFix" result="effect1_dropShadow_2001_122"/>
<feBlend mode="normal" in="SourceGraphic" in2="effect1_dropShadow_2001_122" result="shape"/>
</filter>
</defs>
</svg>
