<svg width="54" height="54" viewBox="0 0 54 54" fill="none" xmlns="http://www.w3.org/2000/svg">
<g clip-path="url(#clip0_466_3919)">
<path d="M46.6364 0H7.36364C3.29681 0 0 3.29681 0 7.36364V46.6364C0 50.7032 3.29681 54 7.36364 54H46.6364C50.7032 54 54 50.7032 54 46.6364V7.36364C54 3.29681 50.7032 0 46.6364 0Z" fill="#EDF7FF"/>
<path d="M19.4523 14.7273C19.4523 15.6375 19.1824 16.5273 18.6767 17.2842C18.171 18.041 17.4522 18.6309 16.6112 18.9792C15.7703 19.3276 14.8449 19.4187 13.9522 19.2411C13.0594 19.0635 12.2394 18.6252 11.5957 17.9816C10.9521 17.3379 10.5138 16.5179 10.3362 15.6251C10.1586 14.7324 10.2497 13.807 10.5981 12.9661C10.9464 12.1251 11.5363 11.4063 12.2931 10.9006C13.05 10.3949 13.9398 10.125 14.85 10.125C16.0706 10.125 17.2412 10.6099 18.1043 11.473C18.9674 12.3361 19.4523 13.5067 19.4523 14.7273ZM18.4091 22.3977V42.7306C18.4099 42.8806 18.3811 43.0292 18.3242 43.1681C18.2674 43.3069 18.1837 43.4331 18.0779 43.5394C17.9721 43.6458 17.8463 43.7302 17.7078 43.7878C17.5693 43.8454 17.4208 43.875 17.2708 43.875H12.42C12.27 43.8754 12.1214 43.8462 11.9828 43.7889C11.8441 43.7317 11.7181 43.6477 11.612 43.5416C11.506 43.4355 11.4219 43.3096 11.3647 43.1709C11.3075 43.0322 11.2782 42.8836 11.2787 42.7336V22.3977C11.2787 22.095 11.3989 21.8047 11.613 21.5907C11.827 21.3766 12.1173 21.2564 12.42 21.2564H17.2708C17.573 21.2572 17.8625 21.3778 18.0759 21.5917C18.2893 21.8057 18.4091 22.0955 18.4091 22.3977ZM43.7646 32.983V42.8257C43.765 42.9636 43.7381 43.1002 43.6855 43.2277C43.6329 43.3552 43.5556 43.471 43.4581 43.5686C43.3606 43.6661 43.2448 43.7434 43.1173 43.796C42.9898 43.8485 42.8532 43.8754 42.7152 43.875H37.4993C37.3614 43.8754 37.2248 43.8485 37.0973 43.796C36.9698 43.7434 36.854 43.6661 36.7565 43.5686C36.6589 43.471 36.5817 43.3552 36.5291 43.2277C36.4765 43.1002 36.4496 42.9636 36.45 42.8257V33.2867C36.45 31.8631 36.8673 27.0522 32.7283 27.0522C29.5221 27.0522 28.8685 30.3443 28.7397 31.8232V42.8257C28.7397 43.1013 28.6313 43.3659 28.4378 43.5623C28.2443 43.7586 27.9813 43.871 27.7057 43.875H22.6677C22.5301 43.875 22.3938 43.8478 22.2667 43.7951C22.1395 43.7423 22.024 43.665 21.9268 43.5675C21.8297 43.47 21.7527 43.3543 21.7003 43.227C21.6479 43.0997 21.6211 42.9633 21.6215 42.8257V22.3088C21.6211 22.1711 21.6479 22.0347 21.7003 21.9074C21.7527 21.7801 21.8297 21.6644 21.9268 21.567C22.024 21.4695 22.1395 21.3921 22.2667 21.3394C22.3938 21.2866 22.5301 21.2594 22.6677 21.2594H27.7057C27.984 21.2594 28.2509 21.37 28.4477 21.5668C28.6445 21.7636 28.755 22.0305 28.755 22.3088V24.0822C29.9455 22.2965 31.7097 20.9189 35.4743 20.9189C43.8137 20.9189 43.7646 28.7059 43.7646 32.983Z" fill="#20B1FB"/>
</g>
<defs>
<clipPath id="clip0_466_3919">
<rect width="54" height="54" rx="15" fill="white"/>
</clipPath>
</defs>
</svg>
