<svg width="54" height="54" viewBox="0 0 54 54" fill="none" xmlns="http://www.w3.org/2000/svg">
<g clip-path="url(#clip0_466_3925)">
<path d="M46.6364 0H7.36364C3.29681 0 0 3.29681 0 7.36364V46.6364C0 50.7032 3.29681 54 7.36364 54H46.6364C50.7032 54 54 50.7032 54 46.6364V7.36364C54 3.29681 50.7032 0 46.6364 0Z" fill="#EDF7FF"/>
<path d="M42.4122 19.0642C41.7372 16.987 39.5035 15.7291 37.4479 15.4407C30.0539 14.6552 22.5975 14.6552 15.2035 15.4407C13.1479 15.7291 10.9081 16.9748 10.2392 19.0642C9.18686 24.4263 9.18686 29.9419 10.2392 35.3041C10.9142 37.3782 13.1479 38.6392 15.2035 38.9276C22.5975 39.7131 30.0539 39.7131 37.4479 38.9276C39.5035 38.6392 41.7433 37.3935 42.4122 35.3041C43.4646 29.9419 43.4646 24.4263 42.4122 19.0642ZM22.288 33.6503V20.7149L32.818 27.1826C29.2681 29.3641 25.8225 31.478 22.288 33.6503Z" fill="#20B1FB"/>
</g>
<defs>
<clipPath id="clip0_466_3925">
<path d="M0 15C0 6.71573 6.71573 0 15 0H39C47.2843 0 54 6.71573 54 15V39C54 47.2843 47.2843 54 39 54H15C6.71573 54 0 47.2843 0 39V15Z" fill="white"/>
</clipPath>
</defs>
</svg>
