<svg width="54" height="54" viewBox="0 0 54 54" fill="none" xmlns="http://www.w3.org/2000/svg">
<g clip-path="url(#clip0_466_3932)">
<path d="M47.25 0H6.75C3.02737 0 0 3.02737 0 6.75V47.25C0 50.9726 3.02737 54 6.75 54H47.25C50.9726 54 54 50.9726 54 47.25V6.75C54 3.02737 50.9726 0 47.25 0Z" fill="#EDF7FF"/>
<path d="M45.5625 27H37.125V20.25C37.125 18.387 38.637 18.5625 40.5 18.5625H43.875V10.125H37.125C31.5326 10.125 27 14.6576 27 20.25V27H20.25V35.4375H27V54H37.125V35.4375H42.1875L45.5625 27Z" fill="#20B1FB"/>
</g>
<defs>
<clipPath id="clip0_466_3932">
<path d="M0 15C0 6.71573 6.71573 0 15 0H39C47.2843 0 54 6.71573 54 15V39C54 47.2843 47.2843 54 39 54H15C6.71573 54 0 47.2843 0 39V15Z" fill="white"/>
</clipPath>
</defs>
</svg>
