<svg width="24" height="24" viewBox="0 0 24 24" fill="none" xmlns="http://www.w3.org/2000/svg">
<g clip-path="url(#clip0_245_260)">
<path d="M23.3919 22.1892C23.3919 22.9871 22.7451 23.6339 21.9472 23.6339H1.72115C0.923255 23.6339 0.276428 22.9871 0.276428 22.1892C0.276428 21.3913 0.923255 20.7445 1.72115 20.7445H21.9472C22.7451 20.7445 23.3919 21.3913 23.3919 22.1892ZM10.8126 17.6125C11.0947 17.8946 11.4644 18.0357 11.8342 18.0357C12.2038 18.0357 12.5737 17.8946 12.8557 17.6125L17.9744 12.4938C18.5387 11.9296 18.5387 11.0149 17.9744 10.4507C17.4102 9.88648 16.4955 9.88648 15.9313 10.4507L13.2789 13.1031V1.96315C13.2789 1.16526 12.6321 0.518433 11.8342 0.518433C11.0363 0.518433 10.3895 1.16526 10.3895 1.96315V13.1031L7.73704 10.4507C7.17283 9.88648 6.2581 9.88648 5.69389 10.4507C5.12969 11.0149 5.12969 11.9296 5.69389 12.4938L10.8126 17.6125Z" fill="black"/>
</g>
<defs>
<clipPath id="clip0_245_260">
<rect width="23.1155" height="23.1155" fill="white" transform="translate(0.276428 0.518433)"/>
</clipPath>
</defs>
</svg>
