<svg width="1384" height="106" viewBox="0 0 1384 106" fill="none" xmlns="http://www.w3.org/2000/svg">
<g opacity="0.08">
<path d="M966.166 7.85374C946.474 10.464 943.007 14.1298 967.414 16.4677C989.602 18.5786 1027.18 19.0439 1061.3 18.9986C1095.27 18.9418 1130.5 18.5332 1162.67 19.4412C1212.32 20.8371 1251.15 25.2179 1303.29 24.7071C1334.35 24.4007 1359.18 22.3011 1371.94 19.9632C1392.6 16.1386 1386.36 11.4287 1355.99 8.06937C1329.22 5.10726 1287.48 3.32545 1245.46 2.00896C1146.03 -1.12339 1027.18 -0.226815 966.166 7.85374Z" fill="#A2CDFF"/>
<path d="M849.677 44.4546C940.588 44.4546 1014.29 43.0421 1014.29 41.2996C1014.29 39.5571 940.588 38.1445 849.677 38.1445C758.765 38.1445 685.067 39.5571 685.067 41.2996C685.067 43.0421 758.765 44.4546 849.677 44.4546Z" fill="#A2CDFF"/>
<path d="M702.786 100.588C1063.46 97.8815 1350.82 91.2046 1344.62 85.6746C1338.42 80.1445 1041.02 77.8554 680.35 80.5617C319.68 83.268 32.3213 89.9449 38.5169 95.475C44.7125 101.005 342.116 103.294 702.786 100.588Z" fill="#A2CDFF"/>
<path d="M331.023 46.7698C318.542 47.3486 304.813 47.7118 290.529 47.7912C263.903 47.9387 236.168 47.0081 220.358 45.249C206.768 43.7396 202.192 41.7308 185.966 40.4143C161.559 38.4396 121.62 38.7573 89.863 37.7019C3.18958 34.8192 23.2978 24.571 85.4253 20.6442C125.226 18.1247 176.952 17.2621 227.154 16.9784C289.142 16.6266 351.547 17.0579 412.288 18.136C452.366 18.851 495.217 20.0427 516.712 22.9026C551.243 27.4877 523.507 35.5796 462.905 37.6905C444.045 38.3488 423.521 38.7914 407.296 39.8355C386.91 41.152 376.371 43.2289 359.452 44.8291C351.547 45.6122 341.84 46.2704 331.023 46.7698Z" fill="#A2CDFF"/>
<path d="M1200.25 23.8219C1212.18 23.89 1223.14 24.3553 1233.26 24.866C1243.38 25.3767 1253.23 25.9555 1264.32 26.3074C1281.8 26.8635 1301.9 26.8408 1319.1 26.2166C1328.67 25.8761 1338.51 25.3427 1348.64 25.5583C1362.78 25.8534 1366.8 27.5104 1358.9 28.5091C1351 29.5078 1335.88 29.9618 1321.6 30.2001C1277.77 30.9491 1233.95 30.2795 1194.15 28.668C1181.53 28.1573 1171.82 27.7827 1168.22 26.5797C1162.95 24.8774 1179.87 23.6971 1200.25 23.8219Z" fill="#A2CDFF"/>
<path d="M524.062 20.5647C533.215 21.4953 542.506 22.6756 557.206 22.721C570.658 22.7664 581.891 21.6883 583 20.5874C584.109 19.4866 577.453 18.4197 568.855 17.5686C544.17 15.0718 488.006 13.1765 450.008 14.7767C420.886 15.991 452.227 16.8536 468.175 17.3189C489.809 17.9544 509.501 19.078 524.062 20.5647Z" fill="#A2CDFF"/>
<path d="M253.502 84.097L179.587 85.8674L123.7 70.6596C138.677 66.5967 191.098 63.3054 240.744 63.3054C290.391 63.3054 318.403 66.5967 303.288 70.6596L253.502 84.097Z" fill="#20B1FB"/>
<path d="M261.823 66.9144L166.136 69.8879L45.2088 42.4571L140.896 39.4836L261.823 66.9144Z" fill="#20B1FB"/>
<path d="M261.823 66.9144L216.753 68.3103L100.125 40.7547L140.896 39.4836L261.823 66.9144Z" fill="#20B1FB"/>
<path d="M233.394 63.7593C232.978 63.7593 232.7 63.7366 232.562 63.7139L131.743 40.244C131.604 40.21 131.882 40.1646 132.298 40.1532C132.714 40.1419 133.269 40.1646 133.407 40.1986L234.226 63.6799C234.364 63.7139 234.087 63.7593 233.671 63.7707C233.671 63.7593 233.532 63.7593 233.394 63.7593Z" fill="#56557C"/>
<path d="M179.587 85.8673H0C0 85.8673 58.6606 65.0758 166.829 65.0758C216.475 65.0758 244.488 68.367 229.372 72.43L179.587 85.8673Z" fill="#20B1FB"/>
<path d="M180.511 73.6737C200.505 71.7577 203.306 69.2674 186.766 68.1114C170.226 66.9554 140.61 67.5715 120.615 69.4875C100.621 71.4035 97.8204 73.8938 114.36 75.0498C130.9 76.2058 160.517 75.5897 180.511 73.6737Z" fill="#56557C"/>
<path d="M131.605 76.5952C121.621 76.5952 112.884 76.3455 105.95 75.8689C95.9652 75.1766 91.2502 74.0757 92.7756 72.7706C94.3011 71.4654 101.651 70.1262 113.439 68.9913C138.123 66.6307 174.734 65.8703 195.258 67.3003C205.243 67.9926 209.958 69.0935 208.433 70.3986C206.907 71.6924 199.557 73.0316 187.77 74.1779C175.843 75.3128 160.866 76.1186 145.473 76.4477C140.619 76.5385 136.043 76.5952 131.605 76.5952ZM169.603 66.7102C151.575 66.7102 130.635 67.55 114.687 69.0708C103.038 70.1943 95.8265 71.4995 94.4397 72.7706C93.053 74.0303 97.4906 75.0858 107.059 75.7554C116.628 76.425 130.08 76.6179 145.057 76.3001C160.173 75.9824 174.873 75.1993 186.522 74.0757C198.17 72.9522 205.382 71.647 206.768 70.3759C208.155 69.1162 203.718 68.0607 194.149 67.3911C187.492 66.9371 178.894 66.7102 169.603 66.7102Z" fill="#56557C"/>
<path d="M180.004 73.1336C168.077 74.2799 150.465 74.6431 140.619 73.9508C130.773 73.2585 132.437 71.7718 144.364 70.6368C156.29 69.4906 173.902 69.1274 183.748 69.8197C193.594 70.5007 191.93 71.9874 180.004 73.1336Z" fill="#70A9FE"/>
<path d="M156.151 73.5195C152.961 73.5195 150.049 73.4401 147.691 73.2812C141.035 72.8159 142.006 71.8058 150.049 71.0454C153.932 70.6823 158.786 70.4212 163.778 70.3191C168.909 70.217 173.485 70.2851 176.814 70.512C180.142 70.739 181.667 71.1022 181.113 71.5335C180.697 71.9534 178.2 72.3846 174.456 72.7478C169.186 73.2358 162.253 73.5195 156.151 73.5195ZM168.216 70.3985C166.968 70.3985 165.581 70.4099 164.055 70.4439C159.479 70.5461 154.903 70.7844 151.297 71.1249C143.947 71.8285 142.838 72.7478 148.801 73.1677C154.764 73.5876 165.72 73.3493 173.069 72.6457C176.675 72.3052 178.894 71.8966 179.31 71.4994C179.726 71.1135 178.339 70.7958 175.566 70.6028C173.624 70.4666 171.128 70.3985 168.216 70.3985Z" fill="#56557C"/>
<path d="M859.847 10.8843L824.757 9.0979L779.269 15.0822L814.359 16.8686L859.847 10.8843Z" fill="#56557C"/>
<path d="M833.966 12.1857L821.838 11.5682L771.296 18.2174L783.424 18.8349L833.966 12.1857Z" fill="#56557C"/>
<path d="M1164.79 8.1838L974.496 25.8638L1016.95 28.9245L1207.25 11.2445L1164.79 8.1838Z" fill="#20B1FB"/>
<path d="M1051.18 35.1029H934.27V29.7575C934.27 27.1131 960.48 24.9795 992.653 24.9795C1024.96 24.9795 1051.04 27.1245 1051.04 29.7575V35.1029H1051.18Z" fill="#20B1FB"/>
<path d="M997.642 31.0278C1013.88 30.8067 1024.86 29.5498 1022.16 28.2205C1019.46 26.8913 1004.1 25.9929 987.857 26.2141C971.614 26.4352 960.637 27.6921 963.339 29.0214C966.041 30.3507 981.399 31.249 997.642 31.0278Z" fill="#56557C"/>
<path d="M1010.13 28.6226C1010.13 27.8395 1002.36 27.204 992.792 27.204C983.223 27.204 975.457 27.8395 975.457 28.6226C975.457 29.4057 983.223 30.0413 992.792 30.0413C1002.36 30.0413 1010.13 29.4057 1010.13 28.6226Z" fill="#70A9FE"/>
<path d="M992.792 29.3149C988.077 29.3149 984.332 29.0085 984.332 28.6226C984.332 28.2367 988.077 27.9303 992.792 27.9303C997.507 27.9303 1001.25 28.2367 1001.25 28.6226C1001.25 29.0085 997.507 29.3149 992.792 29.3149ZM992.792 28.0665C989.048 28.0665 985.997 28.3162 985.997 28.6226C985.997 28.929 989.048 29.1787 992.792 29.1787C996.536 29.1787 999.587 28.929 999.587 28.6226C999.587 28.3162 996.536 28.0665 992.792 28.0665Z" fill="#3D3356"/>
<path d="M1186.39 12.7906H1104.43V5.40234H1186.39C1211.35 5.40234 1231.59 7.05931 1231.59 9.10215C1231.59 11.1336 1211.35 12.7906 1186.39 12.7906Z" fill="#20B1FB"/>
<path d="M1104.57 6.77563H897.382V11.4061H1104.57V6.77563Z" fill="#20B1FB"/>
<path d="M890.032 12.348L813.066 9.65829C808.767 9.51076 805.855 9.15893 805.855 8.77306V6.90046C805.855 6.36706 811.124 5.93579 817.642 5.93579H893.083C898.491 5.93579 902.79 6.28761 902.79 6.73023V11.6557C902.79 12.1891 895.995 12.5637 890.032 12.348Z" fill="#20B1FB"/>
<path d="M819.584 7.64949C816.394 7.64949 813.759 7.43386 813.759 7.17283C813.759 6.9118 816.394 6.69617 819.584 6.69617C822.773 6.69617 825.408 6.9118 825.408 7.17283C825.408 7.44521 822.773 7.64949 819.584 7.64949ZM819.584 6.85505C817.365 6.85505 815.562 7.00259 815.562 7.18418C815.562 7.36576 817.365 7.5133 819.584 7.5133C821.803 7.5133 823.605 7.36576 823.605 7.18418C823.605 7.00259 821.803 6.85505 819.584 6.85505Z" fill="#3D3356"/>
<path d="M889.893 7.64949C886.704 7.64949 884.069 7.43386 884.069 7.17283C884.069 6.9118 886.704 6.69617 889.893 6.69617C893.083 6.69617 895.718 6.9118 895.718 7.17283C895.718 7.44521 893.083 7.64949 889.893 7.64949ZM889.893 6.85505C887.674 6.85505 885.871 7.00259 885.871 7.18418C885.871 7.36576 887.674 7.5133 889.893 7.5133C892.112 7.5133 893.915 7.36576 893.915 7.18418C893.915 7.00259 892.112 6.85505 889.893 6.85505Z" fill="#3D3356"/>
<path d="M889.893 11.7125C886.704 11.7125 884.069 11.4968 884.069 11.2358C884.069 10.9748 886.704 10.7592 889.893 10.7592C893.083 10.7592 895.718 10.9748 895.718 11.2358C895.718 11.4968 893.083 11.7125 889.893 11.7125ZM889.893 10.9067C887.674 10.9067 885.871 11.0542 885.871 11.2358C885.871 11.4174 887.674 11.5649 889.893 11.5649C892.112 11.5649 893.915 11.4174 893.915 11.2358C893.915 11.0542 892.112 10.9067 889.893 10.9067Z" fill="#3D3356"/>
<path d="M1119.82 7.25227C1116.63 7.25227 1114 7.03664 1114 6.77561C1114 6.51458 1116.63 6.29895 1119.82 6.29895C1123.01 6.29895 1125.64 6.51458 1125.64 6.77561C1125.64 7.03664 1123.01 7.25227 1119.82 7.25227ZM1119.82 6.44649C1117.6 6.44649 1115.8 6.59403 1115.8 6.77561C1115.8 6.9572 1117.6 7.10474 1119.82 7.10474C1122.04 7.10474 1123.84 6.9572 1123.84 6.77561C1123.84 6.59403 1122.04 6.44649 1119.82 6.44649Z" fill="#3D3356"/>
<path d="M1119.82 12.1097C1116.63 12.1097 1114 11.8941 1114 11.633C1114 11.372 1116.63 11.1564 1119.82 11.1564C1123.01 11.1564 1125.64 11.372 1125.64 11.633C1125.64 11.9054 1123.01 12.1097 1119.82 12.1097ZM1119.82 11.3039C1117.6 11.3039 1115.8 11.4514 1115.8 11.633C1115.8 11.8146 1117.6 11.9622 1119.82 11.9622C1122.04 11.9622 1123.84 11.8146 1123.84 11.633C1123.84 11.4628 1122.04 11.3039 1119.82 11.3039Z" fill="#3D3356"/>
<path d="M1104.43 10.5662H902.79C902.374 10.5662 901.958 10.5322 901.958 10.4981V6.7302C901.958 6.69616 902.374 6.66211 902.79 6.66211C903.206 6.66211 903.622 6.69616 903.622 6.7302V10.4187H1104.43C1104.84 10.4187 1105.26 10.4527 1105.26 10.4868C1105.4 10.5322 1104.98 10.5662 1104.43 10.5662Z" fill="#3D3356"/>
<path d="M1194.29 11.2472C1180.28 11.2472 1168.91 10.3165 1168.91 9.17027C1168.91 8.02401 1180.28 7.09338 1194.29 7.09338C1208.3 7.09338 1219.67 8.02401 1219.67 9.17027C1219.67 10.3165 1208.3 11.2472 1194.29 11.2472ZM1194.29 7.24092C1181.25 7.24092 1170.71 8.10345 1170.71 9.17027C1170.71 10.2371 1181.25 11.0996 1194.29 11.0996C1207.33 11.0996 1217.87 10.2371 1217.87 9.17027C1217.87 8.10345 1207.33 7.24092 1194.29 7.24092Z" fill="#3D3356"/>
<path d="M1194.29 9.93069C1199.42 9.93069 1203.58 9.59025 1203.58 9.1703C1203.58 8.75035 1199.42 8.40991 1194.29 8.40991C1189.16 8.40991 1185 8.75035 1185 9.1703C1185 9.59025 1189.16 9.93069 1194.29 9.93069Z" fill="#3D3356"/>
<path d="M1186.39 12.8715H1115.11C1114.69 12.8715 1114.27 12.8371 1114.27 12.8027C1114.27 12.7683 1114.69 12.7339 1115.11 12.7339H1186.39C1186.8 12.7339 1187.22 12.7683 1187.22 12.8027C1187.22 12.8371 1186.8 12.8715 1186.39 12.8715Z" fill="#3D3356"/>
<path d="M1000.97 25.0931C1000.84 25.0931 1000.56 25.0817 1000.42 25.0704C1000 25.0477 1000 25.0023 1000.42 24.9682L1133.97 12.7453C1134.24 12.7112 1134.8 12.7112 1135.21 12.7453C1135.63 12.768 1135.63 12.8134 1135.21 12.8474L1001.53 25.0704C1001.39 25.0817 1001.11 25.0931 1000.97 25.0931Z" fill="#3D3356"/>
<path d="M1164.47 15.2775H1140.9C1140.48 15.2775 1140.07 15.2431 1140.07 15.2087C1140.07 15.1743 1140.48 15.1399 1140.9 15.1399H1164.47C1164.89 15.1399 1165.31 15.1743 1165.31 15.2087C1165.31 15.2546 1165.03 15.2775 1164.47 15.2775Z" fill="#3D3356"/>
<path d="M1158.65 15.8222H1137.57C1137.16 15.8222 1136.74 15.7878 1136.74 15.7534C1136.74 15.719 1137.16 15.6846 1137.57 15.6846H1158.65C1159.07 15.6846 1159.48 15.719 1159.48 15.7534C1159.62 15.7878 1159.2 15.8222 1158.65 15.8222Z" fill="#3D3356"/>
<path d="M786.301 15.5031C786.162 15.5031 786.024 15.5031 785.885 15.4917C785.469 15.469 785.33 15.4236 785.608 15.3896L825.963 10.0896C826.24 10.0555 826.795 10.0442 827.211 10.0669C827.627 10.0896 827.766 10.135 827.488 10.169L787.133 15.469C786.856 15.4917 786.578 15.5031 786.301 15.5031Z" fill="#A2CDFF"/>
<path d="M764.39 21.223C764.251 21.223 764.113 21.223 763.974 21.2117C763.558 21.189 763.419 21.1549 763.558 21.1209L791.571 16.865C791.848 16.8309 792.264 16.8196 792.68 16.8309C793.096 16.8536 793.235 16.8877 793.096 16.9217L765.083 21.1776C765.083 21.2003 764.806 21.223 764.39 21.223Z" fill="#3D3356"/>
<path d="M764.39 25.252C749.413 25.252 737.348 24.2532 737.348 23.0389C737.348 21.8245 749.552 20.8258 764.39 20.8258C779.367 20.8258 791.432 21.8245 791.432 23.0389C791.432 24.2532 779.367 25.252 764.39 25.252ZM764.39 20.962C750.384 20.962 739.012 21.8926 739.012 23.0389C739.012 24.1851 750.384 25.1158 764.39 25.1158C778.396 25.1158 789.768 24.1851 789.768 23.0389C789.768 21.8926 778.396 20.962 764.39 20.962Z" fill="#3D3356"/>
<path d="M780.061 23.0388C780.061 22.3352 773.127 21.7677 764.529 21.7677C755.931 21.7677 748.997 22.3352 748.997 23.0388C748.997 23.7424 755.931 24.3099 764.529 24.3099C773.127 24.3099 780.061 23.7311 780.061 23.0388Z" fill="#F9C956"/>
<path d="M1235.62 63.6006L1335.05 45.6349L1226.32 44.3298C1134.8 42.9112 1113.72 65.9385 1113.72 65.9385L1214.68 67.3798L1233.12 64.0318L1233.95 64.0205C1234.09 64.0205 1234.65 63.8729 1235.62 63.6006Z" fill="#20B1FB"/>
<path d="M1214.81 67.3797L1335.19 65.4731C1357.24 54.9865 1384.14 45.5327 1325.34 45.5327C1232.01 45.5327 1214.81 67.3797 1214.81 67.3797Z" fill="#20B1FB"/>
<path d="M1335.05 51.8315C1326.03 53.5111 1308.14 54.4985 1295.25 54.0332C1282.35 53.5679 1279.16 51.8201 1288.31 50.1405C1297.33 48.4608 1315.22 47.4734 1328.11 47.9387C1341.01 48.404 1344.2 50.1518 1335.05 51.8315Z" fill="#56557C"/>
<path d="M1321.32 51.3321C1315.63 52.3876 1304.4 53.0004 1296.36 52.7053C1288.31 52.4103 1286.37 51.3208 1291.92 50.2653C1297.6 49.2098 1308.84 48.597 1316.88 48.8921C1324.92 49.1871 1327 50.2766 1321.32 51.3321Z" fill="#70A9FE"/>
<path d="M1287.76 44.9199C1287.76 45.7143 1273.89 46.3498 1256.83 46.3498C1239.78 46.3498 1225.91 45.7029 1225.91 44.9199C1225.91 44.1368 1239.78 43.4899 1256.83 43.4899C1273.89 43.4899 1287.76 44.1254 1287.76 44.9199Z" fill="#56557C"/>
<path d="M1257.94 44.8972C1251.98 44.8064 1248.1 44.3411 1249.21 43.8644L1265.02 36.8053C1266.13 36.3173 1271.81 35.9995 1277.64 36.0903C1283.6 36.1811 1287.48 36.6464 1286.37 37.1231L1270.56 44.1822C1269.59 44.6589 1263.91 44.988 1257.94 44.8972Z" fill="#56557C"/>
<path d="M1306.76 63.6913C1306.48 63.6913 1306.34 63.6799 1306.2 63.6686C1306.06 63.6572 1305.93 63.6346 1305.93 63.6119L1319.93 56.984C1319.93 56.9499 1320.21 56.9272 1320.63 56.9272L1353.91 56.4052C1354.32 56.3938 1354.88 56.4279 1354.88 56.4619C1355.02 56.496 1354.6 56.5414 1354.19 56.5414L1321.46 57.0521L1307.73 63.5438L1339.76 63.1579C1340.18 63.1579 1340.73 63.1806 1340.73 63.2146C1340.73 63.2487 1340.46 63.2941 1340.04 63.2941L1306.76 63.6913Z" fill="#56557C"/>
<path d="M1256.28 95.8887C1251.29 95.8887 1247.13 95.5482 1247.13 95.1397V72.6344C1247.13 72.2258 1251.29 71.8854 1256.28 71.8854C1261.27 71.8854 1265.43 72.2258 1265.43 72.6344V95.1397C1265.43 95.5482 1261.27 95.8887 1256.28 95.8887Z" fill="#3D3356"/>
<path d="M796.286 73.1337H789.629C786.024 73.1337 783.25 72.8954 783.25 72.6117V56.4959C783.25 56.2009 786.162 55.9739 789.629 55.9739H796.286C799.892 55.9739 802.665 56.2122 802.665 56.4959V72.6003C802.665 72.8954 799.892 73.1337 796.286 73.1337Z" fill="#3D3356"/>
<path d="M684.651 58.0168H681.322C679.519 58.0168 678.133 57.9033 678.133 57.7558V47.2579C678.133 47.1103 679.519 46.9968 681.322 46.9968H684.651C686.453 46.9968 687.84 47.1103 687.84 47.2579V57.7558C687.979 57.9033 686.453 58.0168 684.651 58.0168Z" fill="#3D3356"/>
<path d="M927.891 58.0168H924.563C922.76 58.0168 921.373 57.9033 921.373 57.7558V47.2579C921.373 47.1103 922.76 46.9968 924.563 46.9968H927.891C929.694 46.9968 931.08 47.1103 931.08 47.2579V57.7558C931.08 57.9033 929.694 58.0168 927.891 58.0168Z" fill="#3D3356"/>
<path d="M231.591 101.279H225.351C222.023 101.279 219.249 101.053 219.249 100.78V81.4867C219.249 81.2143 222.023 80.9873 225.351 80.9873H231.591C234.92 80.9873 237.693 81.2143 237.693 81.4867V100.78C237.693 101.053 234.92 101.279 231.591 101.279Z" fill="#3D3356"/>
<path d="M740.122 100.031H733.881C730.553 100.031 727.779 99.8041 727.779 99.5317V80.2382C727.779 79.9659 730.553 79.7389 733.881 79.7389H740.122C743.45 79.7389 746.223 79.9659 746.223 80.2382V99.5317C746.085 99.8041 743.45 100.031 740.122 100.031Z" fill="#3D3356"/>
<path d="M321.316 95.7866H315.075C311.747 95.7866 308.974 95.5596 308.974 95.2872V75.9937C308.974 75.7214 311.747 75.4944 315.075 75.4944H321.316C324.644 75.4944 327.418 75.7214 327.418 75.9937V95.2872C327.418 95.5709 324.644 95.7866 321.316 95.7866Z" fill="#3D3356"/>
<path d="M1300.24 70.444C1270.42 53.1367 377.202 59.583 377.202 52.7962C377.202 46.0094 1195.26 57.0294 1195.26 42.775C1195.26 28.5205 587.853 34.4674 587.853 29.7121C587.853 26.6592 754.682 25.7286 874.222 25.4449V25.252C735.822 25.3427 525.865 26.1826 525.865 30.3931C525.865 36.6691 1085.98 33.1055 1085.98 42.9452C1085.98 55.3271 261.407 40.4143 254.889 54.9979C248.371 69.5929 1201.09 61.9209 1112.19 71.159C1065.6 75.9938 153.654 88.16 153.654 88.16V92.9947C713.634 92.9947 1339.49 93.1536 1300.24 70.444Z" fill="#8FB9D1"/>
<path d="M962.144 50.061C960.064 50.061 958.122 50.0042 956.597 49.8794C953.407 49.6184 953.685 49.1644 957.29 48.8807C960.896 48.5856 966.304 48.5629 969.494 48.8239C972.684 49.085 972.406 49.5389 968.801 49.8227C966.998 49.9815 964.502 50.061 962.144 50.061ZM963.947 48.7899C962.005 48.7899 960.064 48.858 958.539 48.9828C955.626 49.2212 955.349 49.573 957.845 49.7886C960.341 49.9929 964.779 49.9702 967.691 49.7319C970.603 49.4935 970.881 49.1417 968.385 48.9261C967.136 48.8353 965.611 48.7899 963.947 48.7899Z" fill="#56557C"/>
<path d="M506.588 63.487C501.319 63.487 495.494 63.2601 491.334 62.8515C484.677 62.1932 484.4 61.308 490.779 60.8767C493.83 60.6611 497.99 60.593 502.567 60.6725C507.004 60.7519 511.165 60.9675 514.354 61.2853C521.011 61.9436 521.288 62.8288 514.909 63.2601C512.551 63.4189 509.639 63.487 506.588 63.487ZM498.961 60.786C496.188 60.786 493.691 60.854 491.75 60.9902C486.203 61.3761 486.48 62.1705 492.582 62.7607C498.684 63.3508 508.114 63.5324 513.8 63.1466C519.347 62.7607 519.069 61.9663 512.967 61.3761C510.055 61.081 506.172 60.8881 502.151 60.8087C500.903 60.7973 499.932 60.786 498.961 60.786Z" fill="#56557C"/>
<path d="M507.42 61.7506C504.647 61.4782 500.348 61.4101 497.852 61.5804C495.217 61.7506 495.355 62.1138 498.129 62.3861C500.903 62.6585 505.202 62.7266 507.698 62.5564C510.194 62.3748 510.055 62.023 507.42 61.7506Z" fill="#7A9FFF"/>
<path d="M1300.24 66.835C1270.42 50.6966 377.202 56.7116 377.202 50.3788C377.202 44.046 1195.26 54.612 1195.26 41.3223C1195.26 28.0325 587.853 33.5708 587.853 29.1333C587.853 26.2847 754.682 25.5357 874.222 25.3541V25.1838C735.822 25.1838 525.864 25.8421 525.864 29.7689C525.864 35.625 1085.98 32.2997 1085.98 41.4811C1085.98 53.0345 261.407 38.8368 254.889 52.4444C248.232 66.0519 1200.95 58.902 1112.05 67.516C1065.46 72.0216 308.696 73.1224 308.696 73.1224L153.516 88.16C713.634 88.16 1339.48 88.0238 1300.24 66.835Z" fill="#C2D9E5"/>
<path d="M132.575 89.6013C132.575 89.6013 262.239 73.2132 308.696 73.1338L141.589 89.8851L132.575 89.6013Z" fill="#7A9FFF"/>
<path d="M307.309 88.2168C307.17 88.2168 307.031 88.2168 306.893 88.2054C306.477 88.1827 306.338 88.1487 306.477 88.1146L405.215 72.9068C405.492 72.8728 405.908 72.8614 406.325 72.8728C406.741 72.8955 406.879 72.9295 406.741 72.9636L308.002 88.1714C308.002 88.2054 307.586 88.2168 307.309 88.2168Z" fill="#56557C"/>
<path d="M1225.91 78.6948C1225.77 78.6948 1225.63 78.6948 1225.49 78.6835L1030.79 69.6269C1030.37 69.6042 1030.23 69.5701 1030.51 69.5361C1030.79 69.502 1031.21 69.4907 1031.62 69.5134L1226.32 78.57C1226.74 78.5927 1226.88 78.6267 1226.6 78.6608C1226.6 78.6835 1226.19 78.6948 1225.91 78.6948Z" fill="#56557C"/>
<path d="M587.992 29.2937H527.39C526.974 29.2937 526.558 29.2592 526.558 29.2248C526.558 29.1904 526.974 29.156 527.39 29.156H587.992C588.408 29.156 588.824 29.1904 588.824 29.2248C588.824 29.2592 588.408 29.2937 587.992 29.2937Z" fill="#56557C"/>
<path d="M564.694 32.0387C564.278 32.0387 564.001 32.016 563.862 31.9933C563.723 31.9593 564.001 31.9139 564.417 31.9025L616.976 30.3477C617.392 30.3363 617.946 30.359 618.085 30.3931C618.224 30.4271 617.946 30.4725 617.53 30.4839L564.971 32.0387C564.833 32.0387 564.694 32.0387 564.694 32.0387Z" fill="#56557C"/>
<path d="M630.566 87.7174C630.15 87.7174 629.734 87.6947 629.734 87.6493L616.698 72.3166C616.698 72.2826 616.976 72.2485 617.53 72.2372C617.946 72.2372 618.362 72.2599 618.501 72.3053L631.537 87.6379C631.398 87.6833 631.121 87.7174 630.566 87.7174Z" fill="#56557C"/>
<path d="M934.408 85.7199C934.131 85.7199 933.853 85.7086 933.715 85.6859L833.174 71.3406C832.896 71.3066 833.035 71.2612 833.451 71.2498C833.867 71.2271 834.422 71.2385 834.56 71.2725L935.102 85.6178C935.379 85.6518 935.24 85.6972 934.824 85.7086C934.686 85.7199 934.547 85.7199 934.408 85.7199Z" fill="#56557C"/>
<path d="M1302.04 68.9346L1117.74 66.5286C1117.32 66.5172 1116.91 66.4832 1117.05 66.4491C1117.19 66.4151 1117.6 66.381 1118.02 66.3924L1302.18 68.7984C1302.6 68.8097 1303.01 68.8438 1302.87 68.8778C1302.87 68.9119 1302.46 68.9346 1302.04 68.9346Z" fill="#56557C"/>
<path d="M1031.34 63.6913C1031.07 63.6913 1030.79 63.6799 1030.65 63.6572C1030.37 63.6232 1030.51 63.5778 1030.93 63.5551L1135.49 58.1302C1135.91 58.1075 1136.46 58.1189 1136.74 58.1529C1137.02 58.187 1136.88 58.2324 1136.46 58.2551L1031.76 63.6799C1031.62 63.6799 1031.48 63.6913 1031.34 63.6913Z" fill="#56557C"/>
<path d="M884.068 62.6472C883.93 62.6472 883.652 62.6472 883.514 62.6358C883.098 62.6131 883.098 62.5677 883.375 62.5337L953.962 55.781C954.239 55.7469 954.794 55.7469 955.21 55.7696C955.626 55.7923 955.626 55.8377 955.349 55.8717L884.762 62.6245C884.484 62.6358 884.346 62.6472 884.068 62.6472Z" fill="#56557C"/>
<path d="M703.372 61.8755C703.233 61.8755 702.956 61.8642 702.817 61.8528C702.401 61.8301 702.401 61.7847 702.817 61.7507L782.002 54.6348C782.279 54.6007 782.834 54.6007 783.25 54.6348C783.666 54.6575 783.666 54.7029 783.25 54.7369L704.065 61.8528C703.788 61.8642 703.51 61.8755 703.372 61.8755Z" fill="#56557C"/>
<path d="M259.188 51.0598C258.772 51.0598 258.356 51.0258 258.356 50.9917C258.356 50.9577 258.633 50.9236 259.188 50.9123L377.341 50.3108C377.896 50.3108 378.173 50.3335 378.312 50.3789C378.312 50.4129 378.034 50.447 377.48 50.4583L259.188 51.0598Z" fill="#56557C"/>
<path d="M334.074 58.0849C333.797 58.0849 333.519 58.0735 333.381 58.0508C333.103 58.0168 333.242 57.9714 333.658 57.96L450.563 52.7054C450.979 52.6827 451.534 52.6941 451.673 52.7281C451.95 52.7622 451.811 52.8076 451.395 52.8189L334.49 58.0735C334.351 58.0849 334.213 58.0849 334.074 58.0849Z" fill="#56557C"/>
<path d="M523.368 60.8087C523.091 60.8087 522.952 60.7973 522.814 60.786C522.536 60.7633 522.398 60.7179 522.814 60.6838L603.801 53.7949C604.079 53.7722 604.633 53.7609 605.049 53.7949C605.327 53.8176 605.465 53.863 605.049 53.8971L524.062 60.786C523.784 60.8087 523.507 60.8087 523.368 60.8087Z" fill="#56557C"/>
<path d="M456.942 48.3813C456.803 48.3813 456.803 48.3813 456.665 48.3813L392.734 46.418C392.318 46.4066 392.041 46.3612 392.18 46.3272C392.318 46.2931 392.873 46.2704 393.289 46.2818L457.219 48.2452C457.635 48.2565 457.913 48.3019 457.774 48.3359C457.635 48.37 457.358 48.3813 456.942 48.3813Z" fill="#56557C"/>
<path d="M604.355 48.2678C604.217 48.2678 604.078 48.2678 604.078 48.2678L540.286 46.1115C539.87 46.1002 539.593 46.0548 539.87 46.0207C540.009 45.9867 540.564 45.964 540.98 45.9867L604.771 48.143C605.188 48.1544 605.465 48.1998 605.188 48.2338C605.049 48.2451 604.771 48.2678 604.355 48.2678Z" fill="#56557C"/>
<path d="M747.055 48.3814C746.916 48.3814 746.778 48.3814 746.778 48.3814L684.789 46.2818C684.373 46.2705 684.095 46.2251 684.373 46.191C684.511 46.157 685.066 46.1343 685.482 46.157L747.471 48.2565C747.887 48.2679 748.164 48.3133 747.887 48.3473C747.748 48.37 747.332 48.3814 747.055 48.3814Z" fill="#56557C"/>
<path d="M890.447 48.5289C890.309 48.5289 890.17 48.5289 890.17 48.5289L830.539 46.5087C830.123 46.4974 829.845 46.452 830.123 46.4179C830.261 46.3839 830.816 46.3612 831.232 46.3839L890.864 48.404C891.28 48.4154 891.557 48.4608 891.28 48.4948C891.141 48.5062 890.725 48.5289 890.447 48.5289Z" fill="#56557C"/>
<path d="M1015.12 48.0409C1014.98 48.0409 1014.84 48.0409 1014.84 48.0409L957.567 46.1002C957.151 46.0888 956.874 46.0434 957.151 46.0094C957.29 45.9753 957.845 45.9526 958.261 45.9753L1015.53 47.916C1015.95 47.9274 1016.23 47.9728 1015.95 48.0068C1015.81 48.0295 1015.53 48.0409 1015.12 48.0409Z" fill="#56557C"/>
<path d="M1157.12 45.6009C1156.99 45.6009 1156.99 45.6009 1157.12 45.6009L1057.14 44.534C1056.72 44.534 1056.31 44.4886 1056.44 44.4546C1056.44 44.4206 1057 44.3865 1057.41 44.3979L1157.26 45.4647C1157.68 45.4647 1158.09 45.5101 1157.96 45.5441C1157.82 45.5782 1157.54 45.6009 1157.12 45.6009Z" fill="#56557C"/>
<path d="M1079.88 40.0058C1079.46 40.0058 1079.05 39.9718 1079.05 39.9377C1079.05 39.9037 1079.46 39.8696 1079.88 39.8696L1192.76 39.8129C1193.18 39.8129 1193.6 39.8469 1193.6 39.881C1193.6 39.915 1193.18 39.9491 1192.76 39.9491L1079.88 40.0058Z" fill="#56557C"/>
<path d="M1026.49 37.3387C1026.21 37.3387 1025.8 37.3274 1025.66 37.2933C1025.52 37.2593 1025.66 37.2139 1026.07 37.2025L1106.78 34.5469C1107.2 34.5355 1107.76 34.5469 1107.89 34.5809C1108.03 34.615 1107.89 34.6604 1107.48 34.6717L1026.77 37.3274C1026.63 37.3274 1026.49 37.3387 1026.49 37.3387Z" fill="#56557C"/>
<path d="M945.918 35.852C945.641 35.852 945.364 35.8407 945.225 35.818C944.948 35.784 945.086 35.7386 945.502 35.7159L1001.67 32.7197C1002.08 32.697 1002.64 32.7083 1002.91 32.7424C1003.19 32.7764 1003.05 32.8218 1002.64 32.8445L946.473 35.8407C946.196 35.8407 946.057 35.852 945.918 35.852Z" fill="#56557C"/>
<path d="M867.427 34.944C867.15 34.944 866.872 34.9327 866.734 34.91C866.456 34.8759 866.595 34.8305 867.011 34.8192L925.949 32.0614C926.365 32.0387 926.92 32.05 927.058 32.0841C927.336 32.1181 927.197 32.1635 926.781 32.1749L867.843 34.9327C867.704 34.944 867.566 34.944 867.427 34.944Z" fill="#56557C"/>
<path d="M792.403 34.3539C792.125 34.3539 791.848 34.3425 791.709 34.3198C791.432 34.2858 791.57 34.2404 791.986 34.229L848.151 31.6528C848.567 31.6301 849.122 31.6415 849.26 31.6755C849.538 31.7095 849.399 31.7549 848.983 31.7663L792.819 34.3425C792.68 34.3425 792.541 34.3539 792.403 34.3539Z" fill="#56557C"/>
<path d="M720.152 33.8319C719.874 33.8319 719.597 33.8205 719.458 33.7978C719.181 33.7638 719.319 33.7184 719.874 33.707L772.849 31.3578C773.265 31.3351 773.82 31.3464 773.958 31.3918C774.236 31.4259 774.097 31.4713 773.542 31.4826L720.568 33.8319C720.429 33.8205 720.29 33.8319 720.152 33.8319Z" fill="#56557C"/>
<path d="M642.769 33.1736C642.492 33.1736 642.215 33.1623 642.076 33.1396C641.799 33.1055 641.937 33.0601 642.353 33.0488L687.423 31.0059C687.84 30.9833 688.394 30.9946 688.533 31.0286C688.81 31.0627 688.672 31.1081 688.256 31.1194L643.185 33.1623C643.047 33.1736 642.908 33.1736 642.769 33.1736Z" fill="#56557C"/>
<path d="M153.516 88.1599C113.438 89.4651 130.495 92.9946 153.516 92.9946V88.1599Z" fill="#70A9FE"/>
<path d="M332.826 92.3478C329.498 92.3478 326.308 92.2684 323.534 92.1095C315.353 91.6215 314.936 90.5319 322.564 89.6921C326.169 89.2835 331.162 88.9885 336.57 88.875C341.979 88.7501 347.11 88.8182 351.131 89.0566C355.153 89.2949 357.372 89.6808 357.51 90.1461C357.649 90.6 355.708 91.0767 352.102 91.4853C347.11 92.03 339.621 92.3478 332.826 92.3478ZM341.979 88.9431C340.453 88.9431 338.789 88.9658 337.125 88.9998C332.132 89.1133 327.556 89.3857 324.089 89.7715C317.017 90.5546 317.433 91.5534 324.783 91.996C332.132 92.4386 343.92 92.1662 350.854 91.3831C354.321 90.9973 356.124 90.5546 355.985 90.1347C355.846 89.7148 353.766 89.3743 350.299 89.1587C347.803 89.0225 345.029 88.9431 341.979 88.9431Z" fill="#56557C"/>
<path d="M343.504 90.9405C346.694 90.5887 346.555 90.1461 343.088 89.9418C339.76 89.7375 334.49 89.8623 331.3 90.2142C328.111 90.566 328.25 91.0086 331.716 91.2129C335.045 91.4172 340.314 91.2923 343.504 90.9405Z" fill="#7A9FFF"/>
<path d="M518.793 92.1207C515.326 92.1207 512.136 92.0413 509.501 91.8824C505.48 91.6441 503.261 91.2582 503.122 90.7929C502.984 90.3389 504.925 89.8623 508.531 89.4537C516.158 88.6139 528.916 88.3188 537.098 88.8068C545.28 89.2948 545.696 90.3843 538.069 91.2242C534.463 91.6327 529.471 91.9278 524.062 92.0413C522.398 92.098 520.596 92.1207 518.793 92.1207ZM527.807 88.716C521.566 88.716 514.632 89.0111 509.917 89.5445C506.45 89.9304 504.648 90.373 504.786 90.7929C504.925 91.2128 507.005 91.5533 510.472 91.7689C514.078 91.9845 518.654 92.0413 523.508 91.9278C528.5 91.8143 533.077 91.5419 536.543 91.1561C543.616 90.373 543.2 89.3743 535.85 88.9316C533.631 88.7841 530.858 88.716 527.807 88.716Z" fill="#56557C"/>
<path d="M529.332 90.7135C532.522 90.3616 532.383 89.919 528.916 89.7147C525.588 89.5104 520.318 89.6353 517.129 89.9871C513.939 90.3389 514.078 90.7815 517.545 90.9858C521.012 91.1788 526.281 91.0539 529.332 90.7135Z" fill="#7A9FFF"/>
<path d="M698.796 91.6554C695.467 91.6554 692.278 91.576 689.504 91.4171C681.322 90.9291 680.906 89.8396 688.534 88.9997C692.139 88.5912 697.132 88.2961 702.54 88.1826C707.948 88.0578 713.079 88.1258 717.101 88.3642C721.123 88.6025 723.342 88.9884 723.48 89.4537C723.619 89.9077 721.677 90.3843 718.072 90.7929C713.079 91.3376 705.591 91.6554 698.796 91.6554ZM707.81 88.2507C706.284 88.2507 704.62 88.2734 702.956 88.3074C697.964 88.4209 693.387 88.6933 689.92 89.0792C682.848 89.8623 683.264 90.861 690.614 91.3036C697.964 91.7462 709.751 91.4738 716.685 90.6907C720.152 90.3049 721.955 89.8623 721.816 89.4423C721.677 89.0224 719.597 88.682 716.13 88.4663C713.773 88.3301 710.861 88.2507 707.81 88.2507Z" fill="#56557C"/>
<path d="M709.335 90.2481C712.525 89.8963 712.386 89.4537 708.919 89.2494C705.591 89.0451 700.321 89.17 697.132 89.5218C693.942 89.8736 694.081 90.3162 697.548 90.5205C701.014 90.7248 706.284 90.5999 709.335 90.2481Z" fill="#7A9FFF"/>
<path d="M914.855 90.0779C911.388 90.0779 908.199 89.9984 905.564 89.8396C901.542 89.6012 899.323 89.2154 899.185 88.75C899.046 88.2961 900.987 87.8194 904.593 87.4108C912.22 86.571 924.979 86.2759 933.161 86.7639C941.343 87.252 941.759 88.3415 934.131 89.1813C930.526 89.5899 925.533 89.8849 920.125 89.9984C918.322 90.0552 916.519 90.0779 914.855 90.0779ZM923.869 86.6732C917.629 86.6732 910.695 86.9682 905.98 87.5016C902.513 87.8875 900.71 88.3301 900.849 88.75C900.987 89.17 903.068 89.5104 906.535 89.7261C910.14 89.9417 914.716 89.9984 919.57 89.8849C924.563 89.7715 929.139 89.4991 932.606 89.1132C939.678 88.3301 939.262 87.3314 931.912 86.8888C929.694 86.7413 926.781 86.6732 923.869 86.6732Z" fill="#56557C"/>
<path d="M925.395 88.6706C928.584 88.3188 928.445 87.8762 924.979 87.6719C921.65 87.4676 916.381 87.5924 913.191 87.9443C910.001 88.2961 910.14 88.7387 913.607 88.943C916.935 89.1359 922.205 89.0224 925.395 88.6706Z" fill="#7A9FFF"/>
<path d="M1023.02 66.7215C1017.75 66.7215 1011.93 66.4946 1007.77 66.086C1001.11 65.4277 1000.84 64.5425 1007.21 64.1112C1013.59 63.68 1024.13 63.8616 1030.79 64.5198C1037.45 65.1781 1037.72 66.0633 1031.34 66.4946C1028.99 66.6421 1026.07 66.7215 1023.02 66.7215ZM1015.4 64.0205C1012.76 64.0205 1010.27 64.0885 1008.19 64.2247C1002.64 64.6106 1002.92 65.405 1009.02 65.9952C1015.12 66.5853 1024.55 66.7669 1030.23 66.3811C1035.78 65.9952 1035.5 65.2008 1029.4 64.6106C1025.52 64.2247 1020.25 64.0205 1015.4 64.0205Z" fill="#56557C"/>
<path d="M1023.86 64.9851C1021.08 64.7127 1016.78 64.6446 1014.29 64.8149C1011.65 64.9851 1011.79 65.3483 1014.56 65.6206C1017.34 65.893 1021.64 65.9611 1024.13 65.7909C1026.77 65.6093 1026.63 65.2461 1023.86 64.9851Z" fill="#7A9FFF"/>
<path d="M853.421 65.5072C852.312 65.5072 851.064 65.4958 849.954 65.4731C845.517 65.3937 841.356 65.178 838.167 64.8603C831.51 64.202 831.233 63.3168 837.612 62.8855C843.991 62.4543 854.531 62.6359 861.187 63.2941C864.377 63.6119 866.18 63.9864 866.318 64.3496C866.457 64.7241 864.793 65.0532 861.742 65.2575C859.384 65.4277 856.472 65.5072 853.421 65.5072ZM845.794 62.7947C843.159 62.7947 840.663 62.8628 838.583 62.999C833.036 63.3849 833.313 64.1793 839.415 64.7695C842.327 65.0646 846.21 65.2575 850.232 65.3369C854.253 65.405 857.859 65.3483 860.494 65.1667C863.129 64.9851 864.654 64.7014 864.516 64.3723C864.377 64.0318 862.713 63.6913 859.662 63.3962C855.918 63.0104 850.509 62.7947 845.794 62.7947Z" fill="#56557C"/>
<path d="M854.253 63.7594C851.48 63.487 847.181 63.4189 844.684 63.5891C842.05 63.7594 842.188 64.1226 844.962 64.3949C847.735 64.6673 852.034 64.7354 854.531 64.5652C857.165 64.3949 857.027 64.0318 854.253 63.7594Z" fill="#7A9FFF"/>
<path d="M663.571 64.7014C658.302 64.7014 652.477 64.4744 648.317 64.0658C645.127 63.7481 643.324 63.3736 643.186 63.0104C643.047 62.6359 644.711 62.3067 647.762 62.1025C654.141 61.6712 664.681 61.8528 671.337 62.511C677.994 63.1693 678.271 64.0545 671.892 64.4858C669.534 64.622 666.622 64.7014 663.571 64.7014ZM655.944 62.0003C653.309 62.0003 650.813 62.0684 648.733 62.2046C646.098 62.3862 644.573 62.6699 644.711 62.999C644.85 63.3395 646.514 63.68 649.565 63.9751C655.667 64.5652 665.097 64.7468 670.783 64.3609C676.33 63.9751 676.052 63.1806 669.951 62.5905C666.068 62.2046 660.798 62.0003 655.944 62.0003Z" fill="#56557C"/>
<path d="M664.403 62.965C661.63 62.6926 657.331 62.6245 654.835 62.7947C652.2 62.965 652.338 63.3281 655.112 63.6005C657.886 63.8729 662.185 63.941 664.681 63.7707C667.316 63.5891 667.177 63.226 664.403 62.965Z" fill="#7A9FFF"/>
<path d="M1108.45 86.7754C1105.12 86.7754 1101.93 86.696 1099.16 86.5371C1090.98 86.0491 1090.56 84.9596 1098.19 84.1197C1101.79 83.7112 1106.78 83.4161 1112.19 83.3026C1117.6 83.1777 1122.73 83.2458 1126.75 83.4842C1130.78 83.7225 1132.99 84.1084 1133.13 84.5737C1133.27 85.0276 1131.33 85.5043 1127.72 85.9129C1122.73 86.4576 1115.24 86.7754 1108.45 86.7754ZM1117.6 83.3707C1116.08 83.3707 1114.41 83.3934 1112.75 83.4274C1107.76 83.5409 1103.18 83.8133 1099.71 84.1992C1092.64 84.9823 1093.06 85.981 1100.41 86.4236C1107.76 86.8662 1119.54 86.5938 1126.48 85.8107C1129.94 85.4249 1131.75 84.9823 1131.61 84.5623C1131.47 84.1424 1129.39 83.8019 1125.92 83.5863C1123.43 83.4501 1120.65 83.3707 1117.6 83.3707Z" fill="#56557C"/>
<path d="M1119.13 85.3681C1122.32 85.0163 1122.18 84.5737 1118.71 84.3694C1115.38 84.1651 1110.11 84.2899 1106.92 84.6418C1103.73 84.9936 1103.87 85.4362 1107.34 85.6405C1110.67 85.8448 1115.94 85.7199 1119.13 85.3681Z" fill="#7A9FFF"/>
<path d="M1227.3 82.0996C1224.94 82.0996 1222.86 82.0428 1221.19 81.9407C1217.87 81.7477 1216.48 81.3846 1217.03 80.9419C1217.59 80.5107 1219.95 80.034 1223.83 79.6028C1227.71 79.1715 1232.57 78.8424 1237.42 78.6721C1242.55 78.4905 1247.13 78.5019 1250.32 78.7062C1253.64 78.8991 1255.03 79.2623 1254.48 79.7049C1253.92 80.1362 1251.56 80.6128 1247.68 81.0441C1243.8 81.4754 1238.94 81.8045 1234.09 81.9747C1231.73 82.0542 1229.38 82.0996 1227.3 82.0996ZM1244.08 78.6835C1242.27 78.6835 1240.19 78.7175 1237.97 78.797C1233.4 78.9559 1228.82 79.2736 1225.08 79.6822C1221.47 80.0908 1219.11 80.5447 1218.56 80.9533C1218 81.3505 1219.25 81.6569 1222.03 81.8272C1224.8 81.9974 1228.82 81.9974 1233.26 81.8385C1237.83 81.6796 1242.41 81.3619 1246.16 80.9533C1249.76 80.5447 1252.12 80.0908 1252.67 79.6822C1253.23 79.285 1251.98 78.9786 1249.21 78.8083C1247.82 78.7289 1246.02 78.6835 1244.08 78.6835Z" fill="#56557C"/>
<path d="M1240.61 80.6128C1243.94 80.2383 1244.49 79.807 1241.86 79.6482C1239.22 79.4893 1234.23 79.6595 1230.9 80.034C1227.57 80.4085 1227.02 80.8398 1229.65 80.9987C1232.29 81.1576 1237.14 80.9874 1240.61 80.6128Z" fill="#7A9FFF"/>
<path d="M157.677 92.3478C154.348 92.3478 151.159 92.2684 148.385 92.1095C140.203 91.6215 139.787 90.5319 147.414 89.6921C151.02 89.2835 156.012 88.9885 161.421 88.875C166.829 88.7501 171.96 88.8182 175.982 89.0566C180.004 89.2949 182.222 89.6808 182.361 90.1461C182.5 90.6 180.558 91.0767 176.953 91.4853C171.96 92.03 164.472 92.3478 157.677 92.3478ZM166.691 88.9431C165.165 88.9431 163.501 88.9658 161.837 88.9998C156.845 89.1133 152.268 89.3857 148.801 89.7715C141.729 90.5546 142.145 91.5534 149.495 91.996C156.845 92.4386 168.632 92.1662 175.566 91.3831C179.033 90.9973 180.836 90.5546 180.697 90.1347C180.558 89.7148 178.478 89.3743 175.011 89.1587C172.654 89.0225 169.742 88.9431 166.691 88.9431Z" fill="#56557C"/>
<path d="M168.216 90.9405C171.406 90.5887 171.267 90.1461 167.8 89.9418C164.472 89.7375 159.202 89.8623 156.012 90.2142C152.823 90.566 152.961 91.0086 156.428 91.2129C159.895 91.4172 165.165 91.2923 168.216 90.9405Z" fill="#7A9FFF"/>
<path d="M509.224 49.9476C507.143 49.9476 505.202 49.8908 503.677 49.766C500.487 49.505 500.764 49.051 504.37 48.7673C507.976 48.4722 513.384 48.4495 516.573 48.7105C519.763 48.9716 519.486 49.4255 515.88 49.7092C513.939 49.8681 511.581 49.9476 509.224 49.9476ZM510.888 48.6765C508.946 48.6765 507.005 48.7446 505.479 48.8694C502.567 49.1077 502.29 49.4596 504.786 49.6752C507.282 49.8795 511.72 49.8568 514.632 49.6185C517.544 49.3801 517.822 49.0283 515.325 48.8127C514.077 48.7219 512.552 48.6765 510.888 48.6765Z" fill="#56557C"/>
<path d="M659.273 50.1064C657.192 50.1064 655.251 50.0383 653.725 49.9248C652.2 49.8 651.368 49.6184 651.507 49.4254C651.645 49.2325 652.616 49.0623 654.419 48.9147C656.083 48.7785 658.302 48.6877 660.659 48.6764C663.017 48.665 665.097 48.7331 666.761 48.858C668.287 48.9828 669.119 49.1644 668.98 49.3573C668.841 49.5503 667.871 49.7205 666.068 49.8681C664.404 50.0042 662.185 50.095 659.827 50.1064C659.689 50.1064 659.411 50.1064 659.273 50.1064ZM661.075 48.8353C660.937 48.8353 660.798 48.8353 660.659 48.8353C658.857 48.8466 657.054 48.9147 655.528 49.0282C654.142 49.1417 653.309 49.2892 653.171 49.4481C653.032 49.5957 653.725 49.7319 654.835 49.834C656.083 49.9361 657.747 49.9815 659.55 49.9702C661.353 49.9588 663.156 49.8907 664.681 49.7773C666.068 49.6638 666.9 49.5162 667.038 49.3573C667.177 49.2098 666.484 49.0736 665.374 48.9715C664.265 48.8807 662.74 48.8353 661.075 48.8353Z" fill="#56557C"/>
<path d="M809.46 50.2767C807.38 50.2767 805.439 50.2086 803.913 50.0951C802.388 49.9702 801.556 49.7887 801.694 49.5957C801.833 49.4028 802.804 49.2326 804.606 49.085C806.271 48.9488 808.489 48.858 810.847 48.8467C813.204 48.8353 815.285 48.9034 816.949 49.0283C818.474 49.1531 819.306 49.3347 819.168 49.5276C819.029 49.7206 818.058 49.8908 816.255 50.0383C814.591 50.1745 812.372 50.2653 810.015 50.2767C809.738 50.2653 809.599 50.2767 809.46 50.2767ZM811.263 48.9942C811.124 48.9942 810.986 48.9942 810.847 48.9942C809.044 49.0056 807.241 49.0737 805.716 49.1872C804.329 49.3006 803.497 49.4482 803.358 49.6071C803.22 49.7546 803.913 49.8908 805.023 49.9929C806.271 50.0951 807.935 50.1405 809.738 50.1291C811.54 50.1178 813.343 50.0497 814.869 49.9362C816.255 49.8227 817.087 49.6752 817.226 49.5163C817.365 49.3687 816.671 49.2326 815.562 49.1304C814.453 49.0396 812.927 48.9942 811.263 48.9942Z" fill="#56557C"/>
<path d="M844.684 34.2971L744.143 33.7524L795.315 31.5507L895.718 32.0841L844.684 34.2971Z" fill="#A2CDFF"/>
<path d="M844.684 34.3652L744.143 33.8318C743.727 33.8318 743.45 33.8091 743.311 33.7751C743.172 33.741 743.45 33.7183 743.727 33.6956L794.76 31.4939C794.899 31.4825 795.038 31.4825 795.177 31.4825L895.579 32.016C895.995 32.016 896.272 32.0387 896.411 32.0727C896.55 32.1067 896.272 32.1294 895.995 32.1521L844.962 34.3539C844.962 34.3652 844.823 34.3652 844.684 34.3652ZM747.333 33.707L844.546 34.229L892.667 32.1521L795.454 31.6301L747.333 33.707Z" fill="#3D3356"/>
<path d="M1082.38 37.9969L986.413 35.9201L1032.04 33.5594L1128 35.6363L1082.38 37.9969Z" fill="#A2CDFF"/>
<path d="M1082.38 38.065C1082.24 38.065 1082.24 38.065 1082.1 38.065L986.135 35.9881C985.858 35.9768 985.581 35.9541 985.442 35.9314C985.442 35.9087 985.581 35.8746 985.858 35.8633L1031.48 33.5027C1031.62 33.4913 1031.9 33.4913 1032.18 33.4913L1128.14 35.5682C1128.42 35.5796 1128.7 35.6023 1128.83 35.625C1128.83 35.6477 1128.7 35.6817 1128.42 35.6931L1082.79 38.0537C1082.79 38.0537 1082.52 38.065 1082.38 38.065ZM988.632 35.886L1082.24 37.9175L1125.92 35.6704L1032.31 33.6389L988.632 35.886Z" fill="#3D3356"/>
<path d="M432.258 83.5521L474.416 76.4249C477.189 75.9596 483.014 75.6532 489.393 75.6418L724.035 75.2673C732.356 75.2559 739.706 75.7439 741.092 76.4249L754.96 83.189C755.931 83.6429 751.77 84.0515 746.223 84.0628L440.856 84.6189C433.922 84.6303 429.345 84.0515 432.258 83.5521Z" fill="#56557C"/>
<path d="M432.674 82.7917L474.832 75.6645C477.605 75.1992 483.43 74.8928 489.809 74.8814L724.451 74.5069C732.772 74.4956 740.122 74.9836 741.509 75.6645L755.376 82.4286C756.347 82.8825 752.187 83.2911 746.64 83.3025L440.995 83.8586C434.199 83.8699 429.623 83.2911 432.674 82.7917Z" fill="#A2CDFF"/>
<path d="M575.789 81.2369C621.283 81.2369 658.163 80.0377 658.163 78.5585C658.163 77.0793 621.283 75.8801 575.789 75.8801C530.295 75.8801 493.414 77.0793 493.414 78.5585C493.414 80.0377 530.295 81.2369 575.789 81.2369Z" fill="#DBD5EA"/>
<path d="M523.23 83.7111L570.519 83.6203L512.829 74.8474L489.67 74.8815C483.291 74.8928 477.605 75.1992 474.693 75.6645L472.612 76.0164L523.23 83.7111Z" fill="#A2CDFF"/>
<path d="M590.905 83.5862L608.794 83.5522L551.243 74.7906L533.215 74.8133L590.905 83.5862Z" fill="#A2CDFF"/>
<path d="M440.994 83.3365C437.527 83.3365 434.476 83.2003 432.535 82.962C430.593 82.7237 430.455 82.4173 431.98 82.1676L474.138 75.0403C477.05 74.541 483.014 74.2346 489.809 74.2232L724.451 73.8487C733.188 73.8373 740.815 74.3594 742.34 75.063L756.208 81.8271C756.624 82.0654 755.931 82.3038 753.989 82.4854C752.186 82.6669 749.413 82.7804 746.501 82.7804L441.133 83.3365C441.133 83.3365 441.133 83.3365 440.994 83.3365ZM433.644 82.2243C432.396 82.44 432.535 82.6896 434.199 82.8826C435.725 83.0869 438.498 83.2003 441.272 83.189L746.639 82.6329C748.997 82.6329 751.354 82.5421 752.88 82.3832C754.405 82.2357 755.099 82.0314 754.683 81.8385L740.815 75.0744C739.567 74.4388 732.494 73.9735 724.728 73.9735L490.086 74.3481C483.984 74.3594 478.576 74.6431 475.941 75.0857L433.644 82.2243Z" fill="#56557C"/>
<path d="M175.768 34.9564C178.842 31.6312 158.301 28.793 129.89 28.6172C101.478 28.4413 75.9548 30.9943 72.8813 34.3195C69.8078 37.6447 90.3483 40.4829 118.76 40.6588C147.171 40.8347 172.695 38.2816 175.768 34.9564Z" fill="#20B1FB"/>
<path d="M47.9824 30.9378L115.518 28.7588L137.152 40.403L71.6963 42.5025L47.9824 30.9378Z" fill="#20B1FB"/>
<path d="M109.887 37.0939C112.961 33.7687 92.4206 30.9305 64.0091 30.7546C35.5976 30.5787 10.0738 33.1318 7.00005 36.457C3.92632 39.7822 24.4667 42.6204 52.8781 42.7963C81.2896 42.9722 106.813 40.4191 109.887 37.0939Z" fill="#20B1FB"/>
<path d="M129.802 38.519C129.664 38.519 129.525 38.519 129.525 38.519C129.109 38.5077 128.832 38.4623 129.109 38.4282C132.992 37.6565 135.35 36.828 136.043 35.9541C137.568 34.3539 133.547 32.8218 125.087 31.6415C116.628 30.4611 104.425 29.7689 90.9728 29.6894C90.5568 29.6894 90.1407 29.6554 90.1407 29.61C90.1407 29.5759 90.5568 29.5419 91.1115 29.5419C105.118 29.6327 117.738 30.3477 126.474 31.562C135.211 32.7764 139.233 34.3312 137.707 35.9541C136.875 36.8393 134.518 37.6905 130.635 38.4736C130.496 38.4963 130.08 38.519 129.802 38.519Z" fill="#56557C"/>
<path d="M81.82 36.9187C80.4332 38.4395 68.7843 39.5971 55.8873 39.5177C42.9903 39.4382 33.5602 38.1445 34.947 36.6237C36.3338 35.1029 47.9827 33.9453 60.8797 34.0247C73.9154 34.1042 83.3454 35.398 81.82 36.9187Z" fill="#56557C"/>
<path d="M56.719 40.6299C56.1643 40.6299 55.4709 40.6299 54.9162 40.6299C46.0408 40.5732 37.9975 40.1192 32.4504 39.3475C26.9033 38.5871 24.4071 37.5997 25.3779 36.5783C27.3193 34.456 43.822 32.8218 62.1274 32.9353C71.0027 32.992 79.046 33.446 84.5931 34.2177C90.1402 34.9781 92.6364 35.9655 91.6657 36.9869C90.6949 38.0083 86.3959 38.9503 79.6007 39.6426C72.9442 40.2781 64.9009 40.6299 56.719 40.6299ZM60.1859 33.0487C43.5446 33.0487 28.8448 34.5922 27.042 36.567C26.0713 37.5657 28.5674 38.519 33.9759 39.2567C39.2456 39.983 46.7342 40.4143 55.0548 40.4711C63.3755 40.5278 71.5575 40.1873 78.214 39.5291C84.8705 38.8595 89.0308 37.9516 90.0016 36.9528C90.9723 35.9541 88.4761 35.0008 83.0677 34.2631C77.7979 33.5368 70.3094 33.1055 61.9887 33.0487C61.2953 33.0601 60.7406 33.0487 60.1859 33.0487Z" fill="#56557C"/>
<path d="M75.6746 36.8822C76.4314 36.0634 71.4107 35.3648 64.4605 35.3217C57.5104 35.2787 51.2627 35.9076 50.5059 36.7264C49.7492 37.5452 54.7699 38.2439 61.72 38.2869C68.6701 38.3299 74.9178 37.701 75.6746 36.8822Z" fill="#70A9FE"/>
<path d="M177.103 34.6352L104.735 40.5576L346.45 60.3391L418.818 54.4167L177.103 34.6352Z" fill="#20B1FB"/>
<path d="M177.063 34.6432L151.077 36.7698L392.792 56.5513L418.778 54.4246L177.063 34.6432Z" fill="#20B1FB"/>
<path d="M407.157 55.8945C406.88 55.8945 406.741 55.8831 406.603 55.8718L161.56 35.9087C161.282 35.886 161.282 35.8406 161.56 35.8066C161.837 35.7839 162.392 35.7839 162.808 35.8066L407.712 55.781C407.989 55.8037 407.989 55.8491 407.712 55.8831C407.573 55.8945 407.296 55.8945 407.157 55.8945Z" fill="#56557C"/>
<path d="M522.537 67.5614L507.421 68.7984C503.399 69.1275 496.882 69.1275 492.721 68.7984L446.542 65.0192C442.52 64.69 442.52 64.1566 446.542 63.8162L461.658 62.5791C465.679 62.25 472.197 62.25 476.357 62.5791L522.537 66.3584C526.559 66.6988 526.559 67.2322 522.537 67.5614Z" fill="#56557C"/>
<path d="M497.486 66.408L493.27 66.7531L549.065 71.3192L553.282 70.9742L497.486 66.408Z" fill="#56557C"/>
<path d="M445.71 63.975L386.078 59.0495C379.283 58.482 379.283 57.5741 386.217 57.018L420.886 54.2034C427.82 53.6473 438.914 53.6473 445.71 54.2147L505.341 59.1402C512.136 59.7077 512.136 60.6156 505.202 61.1717L470.533 63.9863C463.738 64.5424 452.643 64.5424 445.71 63.975Z" fill="#20B1FB"/>
<path d="M404.938 67.0732L348.08 62.3747C340.453 61.7505 340.592 60.7404 348.219 60.1276L392.596 56.5299C400.223 55.9057 412.565 55.917 420.054 56.5412L477.05 61.2398C484.678 61.864 484.539 62.874 476.912 63.4869L432.535 67.0846C424.908 67.6974 412.565 67.6974 404.938 67.0732Z" fill="#20B1FB"/>
<path d="M443.074 58.5047C442.797 58.5047 442.658 58.4934 442.52 58.482C442.242 58.4593 442.242 58.4139 442.52 58.3799L469.562 56.1895C469.839 56.1668 470.394 56.1668 470.81 56.1895C471.087 56.2122 471.087 56.2576 470.81 56.2917L443.768 58.482C443.49 58.5047 443.213 58.5047 443.074 58.5047Z" fill="#56557C"/>
<path d="M451.117 59.1743C450.84 59.1743 450.701 59.1629 450.563 59.1516C450.285 59.1289 450.285 59.0835 450.563 59.0494L477.605 56.8591C477.882 56.8364 478.437 56.8364 478.853 56.8591C479.13 56.8818 479.13 56.9272 478.853 56.9612L451.811 59.1516C451.533 59.1629 451.256 59.1743 451.117 59.1743Z" fill="#56557C"/>
<path d="M407.157 59.1743C404.106 59.1743 401.055 59.0835 398.836 58.8906C396.617 58.709 395.369 58.4707 395.369 58.2096C395.369 57.9486 396.617 57.7103 398.836 57.5287C403.413 57.1542 410.901 57.1542 415.478 57.5287C420.054 57.9032 420.054 58.5161 415.478 58.8906C413.12 59.0835 410.069 59.1743 407.157 59.1743ZM407.157 57.3925C404.661 57.3925 402.026 57.4719 400.084 57.6308C398.143 57.7897 397.172 57.994 397.172 58.2096C397.172 58.4253 398.143 58.6296 400.084 58.7884C403.967 59.1062 410.346 59.1062 414.229 58.7884C418.112 58.4707 418.112 57.9486 414.229 57.6308C412.288 57.4719 409.653 57.3925 407.157 57.3925Z" fill="#56557C"/>
<path d="M456.942 63.2826C453.891 63.2826 450.841 63.1918 448.622 62.9989C444.045 62.6244 444.045 62.0115 448.622 61.637C450.841 61.4554 453.753 61.3533 456.942 61.3533C460.132 61.3533 463.044 61.4554 465.263 61.637C469.839 62.0115 469.839 62.6244 465.263 62.9989C463.044 63.1918 459.993 63.2826 456.942 63.2826ZM456.942 61.5008C454.307 61.5008 451.811 61.5802 449.87 61.7391C445.987 62.0569 445.987 62.579 449.87 62.8967C453.753 63.2145 460.132 63.2145 464.015 62.8967C467.898 62.579 467.898 62.0569 464.015 61.7391C462.212 61.5916 459.716 61.5008 456.942 61.5008Z" fill="#56557C"/>
<path d="M367.079 62.4202C363.889 62.4202 360.977 62.318 358.758 62.1365C356.539 61.9549 355.291 61.7165 355.291 61.4555C355.291 61.1945 356.539 60.9562 358.758 60.7746C360.977 60.593 363.889 60.4908 367.079 60.4908C370.268 60.4908 373.18 60.593 375.399 60.7746C379.976 61.1491 379.976 61.7619 375.399 62.1365C373.18 62.318 370.268 62.4202 367.079 62.4202ZM367.079 60.6384C364.444 60.6384 361.948 60.7178 360.006 60.8767C358.065 61.0356 357.094 61.2399 357.094 61.4555C357.094 61.6712 358.065 61.8754 360.006 62.0343C361.948 62.1932 364.444 62.2727 367.079 62.2727C369.852 62.2727 372.21 62.1932 374.151 62.0343C378.034 61.7166 378.034 61.1945 374.151 60.8767C372.348 60.7292 369.852 60.6384 367.079 60.6384C367.217 60.6384 367.217 60.6384 367.079 60.6384Z" fill="#56557C"/>
<path d="M417.003 66.5286C413.952 66.5286 410.901 66.4378 408.682 66.2448C404.106 65.8703 404.106 65.2575 408.682 64.8829C413.259 64.5084 420.747 64.5084 425.324 64.8829C429.9 65.2575 429.9 65.8703 425.324 66.2448C422.966 66.4378 420.054 66.5286 417.003 66.5286ZM417.003 64.7581C414.507 64.7581 411.872 64.8375 409.93 64.9964C406.047 65.3142 406.047 65.8363 409.93 66.154C413.813 66.4718 420.193 66.4718 424.076 66.154C427.958 65.8363 427.958 65.3142 424.076 64.9964C422.134 64.8375 419.638 64.7581 417.003 64.7581Z" fill="#56557C"/>
<path d="M455.694 65.2688C455.417 65.2688 455.278 65.2574 455.139 65.2461L370.823 58.2891C370.546 58.2664 370.546 58.221 370.823 58.1869C371.101 58.1642 371.655 58.1642 372.071 58.1869L456.387 65.1439C456.665 65.1666 456.665 65.212 456.387 65.2461C456.11 65.2688 455.833 65.2688 455.694 65.2688Z" fill="#56557C"/>
<path d="M1201.5 35.0008C1198.03 37.0322 1185.14 38.5644 1172.93 38.4282C1160.73 38.2806 1153.66 36.5215 1157.12 34.49C1160.59 32.4586 1173.49 30.9264 1185.69 31.0626C1197.9 31.2102 1204.97 32.9693 1201.5 35.0008Z" fill="#56557C"/>
<path d="M1185.61 31.0723L1172.87 38.4324L1195.11 38.6903L1207.86 31.3303L1185.61 31.0723Z" fill="#56557C"/>
<path d="M1223.67 35.2614C1227.19 33.2259 1220.09 31.4603 1207.8 31.3178C1195.52 31.1753 1182.7 32.71 1179.18 34.7455C1175.65 36.781 1182.76 38.5466 1195.04 38.6891C1207.33 38.8316 1220.14 37.2969 1223.67 35.2614Z" fill="#70A9FE"/>
<path d="M1337.96 33.4345C1320.9 32.6628 1298.44 32.0613 1273.34 31.7775C1248.93 31.4938 1222.72 31.6414 1204 31.9705L1192.63 37.9628C1209.54 38.7005 1235.06 39.4722 1259.47 39.756C1284.57 40.051 1308.14 39.9829 1327.14 39.6311L1337.96 33.4345Z" fill="#20B1FB"/>
<path d="M1349.32 36.7243C1352.85 34.6888 1345.75 32.9231 1333.46 32.7807C1321.18 32.6382 1308.36 34.1729 1304.84 36.2084C1301.31 38.2439 1308.41 40.0095 1320.7 40.152C1332.98 40.2945 1345.8 38.7598 1349.32 36.7243Z" fill="#56557C"/>
<path d="M1333.39 32.7793L1320.64 40.1394L1342.88 40.3974L1355.63 33.0373L1333.39 32.7793Z" fill="#56557C"/>
<path d="M1219.82 35.2168C1222.73 33.535 1216.86 32.0761 1206.7 31.9583C1196.53 31.8404 1185.94 33.1082 1183.02 34.79C1180.11 36.4718 1185.99 37.9307 1196.15 38.0486C1206.31 38.1664 1216.91 36.8986 1219.82 35.2168Z" fill="#20B1FB"/>
<path d="M1371.41 36.9794C1374.94 34.9439 1367.84 33.1783 1355.55 33.0358C1343.27 32.8934 1330.45 34.428 1326.93 36.4635C1323.4 38.499 1330.5 40.2647 1342.79 40.4071C1355.07 40.5496 1367.89 39.0149 1371.41 36.9794Z" fill="#70A9FE"/>
<path d="M1359.18 36.8393C1357.65 37.7586 1351.83 38.4509 1346.28 38.3828C1340.73 38.3147 1337.54 37.5202 1339.21 36.6123C1340.73 35.693 1346.56 35.0007 1352.11 35.0688C1357.65 35.1256 1360.84 35.92 1359.18 36.8393Z" fill="#56557C"/>
<path d="M1095 46.7243L1007.49 45.3852L1200.39 34.5808L1284.71 35.4093L1095 46.7243Z" fill="#20B1FB"/>
<path d="M1284.71 35.4093L1279.58 37.7472L1113.72 47.9614L1095 46.7243L1284.71 35.4093Z" fill="#20B1FB"/>
<path d="M1091.41 54.0813L978.73 52.1055L965.511 57.1547L1078.19 59.1305L1091.41 54.0813Z" fill="#56557C"/>
<path d="M972.961 52.013C965.888 51.8881 961.589 51.332 963.392 50.7646L984.194 44.4658L1009.99 44.9198L989.186 51.2185C987.383 51.7746 980.172 52.1378 972.961 52.013Z" fill="#20B1FB"/>
<path d="M1101.79 54.2714L972.961 52.0129L997.229 44.6927L1113.03 46.7242L1101.79 54.2714Z" fill="#20B1FB"/>
<path d="M1101.79 54.2714C1094.72 54.1466 1090.42 53.5904 1092.22 53.023L1113.03 46.7242L1135.91 48.0861L1118.16 53.4656C1116.21 54.0444 1108.86 54.3962 1101.79 54.2714Z" fill="#20B1FB"/>
<path d="M1106.09 53.8175C1105.12 53.8175 1104.01 53.7948 1103.04 53.7608C1100.82 53.6813 1099.16 53.5111 1098.33 53.3068C1096.8 52.9096 1098.88 52.4783 1102.9 52.3421C1104.7 52.274 1106.78 52.2854 1108.59 52.3535C1110.81 52.4329 1112.47 52.6032 1113.3 52.8074C1114.83 53.2047 1112.75 53.6359 1108.73 53.7721C1107.89 53.8062 1107.06 53.8175 1106.09 53.8175ZM1105.68 52.4329C1104.98 52.4329 1104.29 52.4443 1103.6 52.467C1100.27 52.5805 1098.74 52.9323 1099.99 53.2614C1100.68 53.4316 1102.07 53.5678 1103.73 53.6359C1105.12 53.6927 1106.65 53.6927 1108.03 53.6473C1111.36 53.5338 1112.89 53.182 1111.64 52.8528C1110.94 52.6826 1109.56 52.5464 1107.89 52.4783C1107.2 52.4556 1106.51 52.4329 1105.68 52.4329Z" fill="#56557C"/>
<path d="M1113.3 51.7293C1112.33 51.7293 1111.22 51.7066 1110.25 51.6725C1108.03 51.5931 1106.37 51.4228 1105.54 51.2186C1104.01 50.8213 1106.09 50.3901 1110.11 50.2539C1111.92 50.1971 1114 50.1971 1115.8 50.2652C1118.02 50.3447 1119.68 50.5149 1120.51 50.7192C1122.04 51.1164 1119.96 51.5477 1115.94 51.6839C1115.11 51.7066 1114.13 51.7293 1113.3 51.7293ZM1112.75 50.3447C1112.05 50.3447 1111.36 50.356 1110.67 50.3787C1107.34 50.4922 1105.81 50.844 1107.06 51.1732C1107.76 51.3434 1109.14 51.4796 1110.81 51.5477C1112.19 51.6044 1113.72 51.6044 1115.11 51.559C1118.43 51.4455 1119.96 51.0937 1118.71 50.7646C1118.02 50.5944 1116.63 50.4582 1114.97 50.3901C1114.27 50.356 1113.58 50.3447 1112.75 50.3447Z" fill="#56557C"/>
<path d="M1284.71 35.4887C1284.57 35.4887 1284.57 35.4887 1284.71 35.4887L1200.39 34.6603C1199.98 34.6603 1199.56 34.6262 1199.7 34.5808C1199.7 34.5468 1200.25 34.5127 1200.67 34.5241L1284.85 35.3526C1285.26 35.3526 1285.68 35.3866 1285.54 35.432C1285.4 35.4547 1285.12 35.4887 1284.71 35.4887Z" fill="#56557C"/>
<path d="M1109.84 47.7685H1109.7L980.588 45.6008C980.172 45.5895 979.756 45.5554 979.895 45.5214C980.033 45.4873 980.45 45.4533 980.866 45.4646L1109.97 47.6323C1110.39 47.6437 1110.81 47.6777 1110.67 47.7117C1110.53 47.7458 1110.25 47.7685 1109.84 47.7685Z" fill="#56557C"/>
<path d="M1038 45.6008C1037.72 45.6008 1037.45 45.5895 1037.31 45.5668C1037.03 45.5327 1037.17 45.4873 1037.58 45.4646L1229.65 34.8078C1230.07 34.7851 1230.62 34.7965 1230.9 34.8305C1231.18 34.8646 1231.04 34.91 1230.62 34.9327L1038.56 45.5895C1038.42 45.6008 1038.28 45.6008 1038 45.6008Z" fill="#56557C"/>
<path d="M989.741 49.9703H989.602L974.209 49.6979C973.932 49.6979 973.793 49.6865 973.654 49.6638C973.516 49.6525 973.516 49.6298 973.516 49.6071L984.055 46.452C984.194 46.418 984.61 46.3953 985.026 46.4066L1000.42 46.679C1000.7 46.679 1000.84 46.6904 1000.97 46.7131C1001.11 46.7244 1001.11 46.7471 1001.11 46.7698L990.573 49.9249C990.434 49.9589 990.018 49.9703 989.741 49.9703ZM975.457 49.5844L989.186 49.8227L999.31 46.8039L985.581 46.5655L975.457 49.5844Z" fill="#56557C"/>
<path d="M1086.82 51.752H1086.68L1071.28 51.4796C1071.01 51.4796 1070.87 51.4683 1070.73 51.4456C1070.59 51.4342 1070.59 51.4115 1070.59 51.3888L1081.13 48.2338C1081.27 48.1997 1081.68 48.177 1082.1 48.1884L1097.49 48.4608C1097.77 48.4608 1097.91 48.4721 1098.05 48.4948C1098.19 48.5061 1098.19 48.5288 1098.19 48.5515L1087.65 51.7066C1087.51 51.7293 1087.23 51.752 1086.82 51.752ZM1072.53 51.3548L1086.26 51.5931L1096.38 48.5742L1082.65 48.3359L1072.53 51.3548Z" fill="#56557C"/>
<path d="M575.789 77.1627C599.379 77.1627 618.502 75.5977 618.502 73.6672C618.502 71.7366 599.379 70.1716 575.789 70.1716C552.2 70.1716 533.076 71.7366 533.076 73.6672C533.076 75.5977 552.2 77.1627 575.789 77.1627Z" fill="#F9C956"/>
<path d="M575.789 75.6419C562.476 75.6419 551.659 74.7566 551.659 73.6671C551.659 72.5776 562.476 71.6924 575.789 71.6924C589.102 71.6924 599.919 72.5776 599.919 73.6671C599.919 74.7566 589.102 75.6419 575.789 75.6419ZM575.789 71.8399C563.446 71.8399 553.462 72.6571 553.462 73.6671C553.462 74.6772 563.446 75.4943 575.789 75.4943C588.131 75.4943 598.116 74.6772 598.116 73.6671C598.116 72.6684 588.131 71.8399 575.789 71.8399Z" fill="#56557C"/>
<path d="M585.537 74.4698C590.953 74.0266 590.953 73.3079 585.537 72.8647C580.121 72.4214 571.34 72.4214 565.924 72.8647C560.508 73.3079 560.508 74.0266 565.924 74.4698C571.34 74.913 580.121 74.913 585.537 74.4698Z" fill="#A2CDFF"/>
<path d="M575.789 70.7844C575.373 70.7844 574.957 70.7503 574.957 70.7163V68.3103C574.957 68.2762 575.373 68.2422 575.789 68.2422C576.205 68.2422 576.621 68.2762 576.621 68.3103V70.7163C576.621 70.7617 576.205 70.7844 575.789 70.7844Z" fill="#56557C"/>
<path d="M550.41 70.1376C550.133 70.1376 549.856 70.1262 549.717 70.1035L542.367 69.0594C542.09 69.0253 542.228 68.9799 542.645 68.9686C543.061 68.9459 543.615 68.9572 543.754 68.9913L551.104 70.0354C551.381 70.0695 551.243 70.1149 550.827 70.1262C550.688 70.1376 550.549 70.1376 550.41 70.1376Z" fill="#56557C"/>
<path d="M531.828 71.6583C531.689 71.6583 531.551 71.6583 531.412 71.647L509.917 70.6255C509.501 70.6028 509.362 70.5574 509.64 70.5347C509.917 70.5007 510.472 70.4894 510.749 70.5121L532.244 71.5335C532.66 71.5562 532.799 71.6016 532.521 71.6243C532.383 71.647 532.105 71.6583 531.828 71.6583Z" fill="#56557C"/>
<path d="M519.069 76.4249C518.792 76.4249 518.515 76.4136 518.376 76.3909C518.099 76.3568 518.237 76.3114 518.653 76.3001L531.412 75.6986C531.828 75.6759 532.382 75.6872 532.521 75.7213C532.798 75.7553 532.66 75.8007 532.244 75.8121L519.485 76.4136C519.347 76.4249 519.208 76.4249 519.069 76.4249Z" fill="#56557C"/>
<path d="M543.061 78.3883C542.922 78.3883 542.783 78.3883 542.645 78.377C542.228 78.3543 542.09 78.3089 542.367 78.2862L551.936 76.9356C552.213 76.9016 552.768 76.8902 553.045 76.9129C553.461 76.9356 553.6 76.981 553.323 77.0037L543.754 78.3543C543.615 78.377 543.338 78.3883 543.061 78.3883Z" fill="#56557C"/>
<path d="M575.789 80.2269C575.373 80.2269 574.957 80.1929 574.957 80.1588V76.9584C574.957 76.9243 575.373 76.8903 575.789 76.8903C576.205 76.8903 576.621 76.9243 576.621 76.9584V80.1588C576.621 80.2042 576.205 80.2269 575.789 80.2269Z" fill="#56557C"/>
<path d="M608.517 78.3883C608.239 78.3883 607.962 78.3769 607.823 78.3542L600.473 77.3101C600.196 77.2761 600.335 77.2307 600.751 77.2193C601.167 77.1966 601.721 77.208 601.86 77.242L609.21 78.2861C609.487 78.3202 609.349 78.3656 608.933 78.3769C608.794 78.3769 608.655 78.3883 608.517 78.3883Z" fill="#56557C"/>
<path d="M632.508 76.425C632.369 76.425 632.23 76.425 632.092 76.4136L606.575 75.2106C606.159 75.1879 606.02 75.1425 606.298 75.1198C606.575 75.0858 607.13 75.0744 607.407 75.0971L632.924 76.3001C633.34 76.3228 633.479 76.3682 633.201 76.3909C633.063 76.4136 632.785 76.425 632.508 76.425Z" fill="#56557C"/>
<path d="M624.049 71.4654C623.771 71.4654 623.494 71.454 623.355 71.4313C623.078 71.3973 623.216 71.3519 623.632 71.3405L632.092 70.9433C632.508 70.9206 633.063 70.932 633.201 70.966C633.479 71.0001 633.34 71.0455 632.924 71.0568L624.465 71.454C624.326 71.4654 624.187 71.4654 624.049 71.4654Z" fill="#56557C"/>
<path d="M600.335 70.251C600.196 70.251 600.057 70.251 599.919 70.2397C599.503 70.217 599.364 70.1716 599.641 70.1489L614.202 68.0833C614.48 68.0493 615.034 68.0379 615.312 68.0606C615.728 68.0833 615.867 68.1287 615.589 68.1514L601.028 70.217C601.028 70.2397 600.751 70.251 600.335 70.251Z" fill="#56557C"/>
<path d="M1119.7 77.5698L1081.81 77.3291L1079.72 79.5355L1117.6 79.7762L1119.7 77.5698Z" fill="#70A9FE"/>
<path d="M934.409 76.6292L915.132 76.8562L912.636 79.0693C910.695 80.8057 938.985 81.8612 975.734 81.4299L1117.6 79.7729L1051.31 72.0896L982.668 75.1425C964.224 75.3581 947.028 75.9029 934.409 76.6292Z" fill="#70A9FE"/>
<path d="M914.994 76.8562C913.052 78.5926 941.343 79.6481 978.092 79.2168L1119.68 77.5485L1051.31 72.0896L985.303 72.9294C948.415 73.3607 917.074 75.1198 914.994 76.8562Z" fill="#A2CDFF"/>
<path d="M983.592 77.5642C1002.53 77.1746 1015.8 76.1787 1013.22 75.3398C1010.64 74.501 993.201 74.1368 974.261 74.5265C955.32 74.9162 942.055 75.9121 944.632 76.7509C947.208 77.5898 964.652 77.9539 983.592 77.5642Z" fill="#70A9FE"/>
<path d="M1014.15 75.6418C1013.04 76.5611 996.536 77.503 977.121 77.73C964.502 77.8776 953.13 77.696 947.444 77.242C944.532 77.015 943.284 76.7426 943.561 76.4362C944.671 75.5169 961.173 74.575 980.588 74.348C993.208 74.2005 1004.58 74.382 1010.27 74.836C1013.18 75.063 1014.56 75.3467 1014.15 75.6418ZM945.087 76.4589C944.809 76.7313 945.919 76.9696 948.554 77.1626C953.962 77.5825 964.918 77.7527 976.983 77.6165C995.704 77.4009 1011.79 76.5043 1012.76 75.6418C1013.04 75.3694 1011.93 75.1311 1009.29 74.9381C1003.89 74.5182 992.93 74.348 980.866 74.4842C962.144 74.6998 946.057 75.585 945.087 76.4589Z" fill="#70A9FE"/>
<path d="M947.999 77.208C953.407 77.6279 964.224 77.8209 976.983 77.6733C989.741 77.5258 1001.25 77.0605 1007.77 76.5044C1002.36 76.0844 991.544 75.8915 978.785 76.039C966.166 76.1979 954.517 76.6519 947.999 77.208Z" fill="#56557C"/>
<path d="M1008.6 76.5157C1008.6 76.527 1008.46 76.5384 1008.46 76.5497C1001.67 77.1285 989.602 77.5825 977.121 77.73C964.64 77.8776 953.269 77.696 947.583 77.2534C947.444 77.242 947.306 77.2307 947.306 77.208C947.306 77.1966 947.444 77.1739 947.444 77.1626C954.239 76.5838 966.304 76.1298 978.785 75.9823C991.266 75.8347 1002.64 76.0163 1008.32 76.4589C1008.6 76.4703 1008.6 76.493 1008.6 76.5157ZM949.108 77.208C954.656 77.5939 965.195 77.7527 976.844 77.6166C988.632 77.4804 1000 77.0604 1006.66 76.5157C1001.11 76.1298 990.573 75.9709 978.924 76.1071C967.137 76.2433 955.904 76.6632 949.108 77.208Z" fill="#56557C"/>
<path d="M719.459 35.0235C719.459 37.7246 746.224 39.915 779.229 39.915C812.234 39.915 838.999 37.7246 838.999 35.0235C838.999 32.3225 812.234 30.1321 779.229 30.1321C746.224 30.1321 719.459 32.3225 719.459 35.0235ZM760.23 35.0235C760.23 34.1724 768.689 33.4687 779.229 33.4687C789.63 33.4687 798.228 34.161 798.228 35.0235C798.228 35.8861 789.768 36.5784 779.229 36.5784C768.828 36.567 760.23 35.8747 760.23 35.0235Z" fill="#56557C"/>
<path d="M718.349 35.0235C718.349 32.277 745.669 30.0413 779.229 30.0413C812.789 30.0413 840.108 32.277 840.108 35.0235C840.108 37.77 812.789 40.0058 779.229 40.0058C745.669 40.0058 718.349 37.77 718.349 35.0235ZM720.707 35.0235C720.707 37.6679 747.056 39.8128 779.229 39.8128C811.541 39.8128 837.751 37.6565 837.751 35.0235C837.751 32.3792 811.402 30.2342 779.229 30.2342C746.917 30.2228 720.707 32.3792 720.707 35.0235ZM759.121 35.0235C759.121 34.1156 768.135 33.3779 779.229 33.3779C790.323 33.3779 799.337 34.1156 799.337 35.0235C799.337 35.9314 790.323 36.6691 779.229 36.6691C768.135 36.6691 759.121 35.9201 759.121 35.0235ZM761.478 35.0235C761.478 35.8293 769.521 36.4762 779.229 36.4762C789.075 36.4762 796.98 35.818 796.98 35.0235C796.98 34.2177 788.936 33.5708 779.229 33.5708C769.383 33.5595 761.478 34.2177 761.478 35.0235Z" fill="#56557C"/>
<path d="M700.599 35.0235C700.599 37.7246 727.363 39.915 760.369 39.915C793.374 39.915 820.139 37.7246 820.139 35.0235C820.139 32.3225 793.374 30.1321 760.369 30.1321C727.363 30.1321 700.599 32.3225 700.599 35.0235ZM741.37 35.0235C741.37 34.1724 749.829 33.4687 760.369 33.4687C770.908 33.4687 779.367 34.161 779.367 35.0235C779.367 35.8861 770.908 36.5784 760.369 36.5784C749.829 36.5784 741.37 35.8747 741.37 35.0235Z" fill="#70A9FE"/>
<path d="M699.351 35.0235C699.351 32.277 726.67 30.0413 760.23 30.0413C793.79 30.0413 821.109 32.277 821.109 35.0235C821.109 37.77 793.79 40.0058 760.23 40.0058C726.67 40.0058 699.351 37.77 699.351 35.0235ZM701.708 35.0235C701.708 37.6679 728.057 39.8128 760.23 39.8128C792.542 39.8128 818.752 37.6565 818.752 35.0235C818.752 32.3792 792.403 30.2342 760.23 30.2342C727.918 30.2228 701.708 32.3792 701.708 35.0235ZM740.122 35.0235C740.122 34.1156 749.136 33.3779 760.23 33.3779C771.324 33.3779 780.338 34.1156 780.338 35.0235C780.338 35.9314 771.324 36.6691 760.23 36.6691C749.136 36.6578 740.122 35.9201 740.122 35.0235ZM742.479 35.0235C742.479 35.8293 750.523 36.4762 760.23 36.4762C770.076 36.4762 777.981 35.818 777.981 35.0235C777.981 34.2177 769.937 33.5708 760.23 33.5708C750.523 33.5595 742.479 34.2177 742.479 35.0235Z" fill="#70A9FE"/>
<path d="M915.826 47.9843H769.798V57.8126H915.826V47.9843Z" fill="#A2CDFF"/>
<path d="M915.687 47.9843H884.207V57.8126H915.687V47.9843Z" fill="#70A9FE"/>
<path d="M842.743 47.9843H782.141V57.8126H842.743V47.9843Z" fill="#A2CDFF"/>
<path d="M810.986 47.9843H796.425V57.8126H810.986V47.9843Z" fill="#A2CDFF"/>
<path d="M932.606 57.8125H752.88V60.332H932.606V57.8125Z" fill="#A2CDFF"/>
<path d="M932.606 57.8125H895.302V60.332H932.606V57.8125Z" fill="#70A9FE"/>
<path d="M842.743 57.8125H768.134V60.332H842.743V57.8125Z" fill="#A2CDFF"/>
<path d="M803.636 57.8125H785.746V60.332H803.636V57.8125Z" fill="#A2CDFF"/>
<path d="M888.645 38.1445H796.841V47.9728H888.645V38.1445Z" fill="#A2CDFF"/>
<path d="M888.645 38.1445H870.062V47.9728H888.645V38.1445Z" fill="#70A9FE"/>
<path d="M842.743 38.1445H804.607V47.9728H842.743V38.1445Z" fill="#A2CDFF"/>
<path d="M822.773 38.1445H813.621V47.9728H822.773V38.1445Z" fill="#A2CDFF"/>
<path d="M915.826 57.8578H768.134C767.857 57.8578 767.58 57.8352 767.58 57.8125C767.58 57.7898 767.857 57.7671 768.134 57.7671H915.826C916.103 57.7671 916.381 57.7898 916.381 57.8125C916.381 57.8352 916.103 57.8578 915.826 57.8578Z" fill="#3D3356"/>
<path d="M888.645 48.0296H796.841C796.563 48.0296 796.286 48.0069 796.286 47.9842C796.286 47.9615 796.563 47.9388 796.841 47.9388H888.645C888.923 47.9388 889.2 47.9615 889.2 47.9842C889.339 48.0069 889.061 48.0296 888.645 48.0296Z" fill="#3D3356"/>
<path d="M464.708 45.7824L475.525 40.8683H506.45L496.05 45.6236C522.814 45.6122 542.923 45.9413 543.339 46.4747C543.893 47.0989 516.158 47.7685 481.488 47.9501C446.819 48.1431 418.39 47.7799 417.835 47.1557C417.281 46.6109 437.389 46.0548 464.708 45.7824Z" fill="#70A9FE"/>
<path d="M463.321 48.0636C469.146 48.0636 475.248 48.0522 481.488 48.0182C512.691 47.8479 544.725 47.2237 544.032 46.4634C544.032 46.4293 543.616 46.3953 543.2 46.3953C542.784 46.3953 542.367 46.4293 542.367 46.4634C542.784 46.9741 518.376 47.6664 481.349 47.8706C464.708 47.9614 448.899 47.9274 436.973 47.7799C425.74 47.6437 418.806 47.394 418.667 47.1443C418.667 47.1103 418.251 47.0762 417.835 47.0762C417.419 47.0762 417.003 47.1103 417.003 47.1443C417.419 47.5756 427.959 47.8026 436.695 47.916C444.323 48.0182 453.337 48.0636 463.321 48.0636Z" fill="#56557C"/>
<path d="M494.246 46.4748C494.662 46.4748 494.939 46.4521 495.078 46.418L507.143 40.891C507.282 40.8569 506.866 40.8229 506.45 40.8116C506.034 40.8002 505.618 40.8343 505.479 40.8683L493.414 46.3953C493.275 46.4294 493.691 46.4634 494.107 46.4748H494.246Z" fill="#56557C"/>
<path d="M385.662 44.534H561.921C573.431 44.534 584.525 43.7737 586.744 42.8203L613.925 30.9265C616.144 29.9845 608.516 29.2128 597.006 29.2128H420.608C409.098 29.2128 398.004 29.9732 395.785 30.9265L368.604 42.8203C366.524 43.7737 374.013 44.534 385.662 44.534Z" fill="#70A9FE"/>
<path d="M365.276 44.0914C361.809 43.7509 360.561 43.297 361.671 42.8203L388.852 30.9265C391.07 29.9504 402.581 29.156 414.507 29.156H590.766C596.59 29.156 601.583 29.3376 604.911 29.6667C608.378 30.0072 609.626 30.4612 608.517 30.9378L581.336 42.8317C579.117 43.8077 567.607 44.6021 555.681 44.6021H379.56C373.736 44.6021 368.743 44.4205 365.276 44.0914ZM414.507 29.2922C403.413 29.2922 392.596 30.0299 390.516 30.9492L363.335 42.843C362.364 43.2856 363.474 43.6942 366.663 44.0006C369.714 44.2957 374.29 44.4659 379.56 44.4659H555.819C566.913 44.4659 577.73 43.7282 579.81 42.809L606.991 30.9151C607.962 30.4725 606.852 30.0639 603.663 29.7575C600.612 29.4624 596.036 29.2922 590.766 29.2922H414.507Z" fill="#56557C"/>
<path d="M378.035 43.1495H564.418L593.956 30.4158H407.435L378.035 43.1495Z" fill="#A2CDFF"/>
<path d="M445.016 41.1974H543.2L550.965 37.9742H452.782L445.016 41.1974Z" fill="#A2CDFF"/>
<path d="M413.259 33.6616H529.332L531.273 32.6969H415.062L413.259 33.6616Z" fill="#A2CDFF"/>
<path d="M458.468 34.9895C458.329 34.9781 458.19 34.9554 458.329 34.9327L466.095 31.6982C466.234 31.6642 466.511 31.6415 466.927 31.6415H565.111C565.388 31.6415 565.665 31.6528 565.804 31.6642C565.943 31.6755 566.081 31.6982 565.943 31.7209L558.177 34.9554C558.038 34.9895 557.761 35.0122 557.345 35.0122H459.161C458.884 35.0122 458.745 35.0008 458.468 34.9895ZM564.14 31.7777H467.62L460.132 34.876H556.651L564.14 31.7777Z" fill="#56557C"/>
<path d="M456.249 36.2393H532.522C532.938 36.2393 533.354 36.2049 533.354 36.1705C533.354 36.1361 532.938 36.1017 532.522 36.1017H456.249C455.833 36.1017 455.417 36.1361 455.417 36.1705C455.417 36.2049 455.833 36.2393 456.249 36.2393Z" fill="#56557C"/>
<path d="M453.06 37.1132H529.332C529.748 37.1132 530.164 37.0788 530.164 37.0444C530.164 37.01 529.748 36.9756 529.332 36.9756H453.06C452.644 36.9756 452.228 37.01 452.228 37.0444C452.228 37.0788 452.644 37.1132 453.06 37.1132Z" fill="#56557C"/>
<path d="M404.8 41.2669H481.072C481.489 41.2669 481.905 41.2325 481.905 41.1981C481.905 41.1637 481.489 41.1293 481.072 41.1293H404.8C404.384 41.1293 403.968 41.1637 403.968 41.1981C403.968 41.2325 404.384 41.2669 404.8 41.2669Z" fill="#56557C"/>
</g>
</svg>
