<svg width="857" height="856" viewBox="0 0 857 856" fill="none" xmlns="http://www.w3.org/2000/svg">
<path d="M601.865 428.172C601.865 523.861 524.294 601.433 428.605 601.433C332.915 601.433 255.344 523.861 255.344 428.172C255.344 332.483 332.915 254.911 428.605 254.911C524.294 254.911 601.865 332.483 601.865 428.172ZM321.263 428.172C321.263 487.455 369.321 535.514 428.605 535.514C487.888 535.514 535.947 487.455 535.947 428.172C535.947 368.889 487.888 320.83 428.605 320.83C369.321 320.83 321.263 368.889 321.263 428.172Z" fill="#89D7FF" fill-opacity="0.6"/>
<path d="M856.241 428.172C856.241 664.349 664.781 855.808 428.604 855.808C192.427 855.808 0.968079 664.349 0.968079 428.172C0.968079 191.995 192.427 0.535645 428.604 0.535645C664.781 0.535645 856.241 191.995 856.241 428.172ZM157.211 428.172C157.211 578.059 278.718 699.566 428.604 699.566C578.491 699.566 699.998 578.059 699.998 428.172C699.998 278.285 578.491 156.778 428.604 156.778C278.718 156.778 157.211 278.285 157.211 428.172Z" fill="#26B0F7" fill-opacity="0.25"/>
</svg>
