<svg width="1457" height="979" viewBox="0 0 1457 979" fill="none" xmlns="http://www.w3.org/2000/svg">
<path d="M1067.77 412.265L1066.87 411.666L920.766 328.734L922.563 325.74L1067.77 408.074L1149.5 360.769L1151.3 364.063L1067.77 412.265Z" fill="#20B1FB" fill-opacity="0.25"/>
<path d="M1310.28 951.473L1308.48 948.18L1403.39 893.391L1261.77 811.058L1370.45 748.484L1342.31 732.617L1344.11 729.323L1377.64 748.484L1269.26 811.357L1410.87 893.391L1310.28 951.473Z" fill="#20B1FB" fill-opacity="0.25"/>
<path d="M825.56 699.684L773.466 669.445L775.262 666.451L825.56 695.193L1042.02 570.346L1097.11 602.081L1095.31 605.375L1042.02 574.537L825.56 699.684Z" fill="#20B1FB" fill-opacity="0.25"/>
<path d="M1342.61 609.864L1340.82 606.871L1447.7 544.896L1322.85 472.742L1449.8 399.69L1418.66 381.726L1420.46 378.433L1456.98 399.69L1330.34 472.742L1455.19 544.896L1342.61 609.864Z" fill="#20B1FB" fill-opacity="0.25"/>
<path d="M979.149 214.665L905.199 172.151L985.437 125.745L774.663 4.19151L695.624 49.9988L693.827 46.7054L774.663 0L992.622 125.745L912.684 172.151L981.245 211.671L979.149 214.665Z" fill="#20B1FB" fill-opacity="0.25"/>
<path d="M245.503 978.877L104.788 897.742L50.8969 928.878L0 899.538L43.1127 874.089L44.9091 877.383L7.18545 899.538L50.8969 924.687L104.788 893.55L245.503 974.686L272.149 959.417L273.945 962.71L245.503 978.877Z" fill="#20B1FB" fill-opacity="0.25"/>
<path d="M273.045 967.8L261.369 960.914L273.045 954.327L284.422 960.914L273.045 967.8Z" fill="#20B1FB" fill-opacity="0.25"/>
<path d="M44.0094 882.473L32.333 875.587L44.0094 869L55.6857 875.886L44.0094 882.473Z" fill="#20B1FB" fill-opacity="0.25"/>
<path d="M1308.78 956.563L1297.11 949.677L1308.48 943.09L1320.16 949.976L1308.78 956.563Z" fill="#20B1FB" fill-opacity="0.25"/>
<path d="M1343.21 737.706L1331.83 730.82L1343.21 724.233L1354.89 731.119L1343.21 737.706Z" fill="#20B1FB" fill-opacity="0.25"/>
<path d="M1341.72 614.955L1330.04 608.368L1341.72 601.781L1353.39 608.368L1341.72 614.955Z" fill="#20B1FB" fill-opacity="0.25"/>
<path d="M1419.56 386.817L1407.88 379.931L1419.56 373.344L1431.23 379.931L1419.56 386.817Z" fill="#20B1FB" fill-opacity="0.25"/>
<path d="M1150.4 369.152L1138.73 362.565L1150.4 355.679L1161.78 362.565L1150.4 369.152Z" fill="#20B1FB" fill-opacity="0.25"/>
<path d="M921.963 333.824L910.287 327.238L921.664 320.651L933.34 327.238L921.963 333.824Z" fill="#20B1FB" fill-opacity="0.25"/>
<path d="M980.346 219.755L968.67 213.169L980.047 206.582L991.723 213.169L980.346 219.755Z" fill="#20B1FB" fill-opacity="0.25"/>
<path d="M694.722 55.0884L683.046 48.2024L694.722 41.6157L706.399 48.5018L694.722 55.0884Z" fill="#20B1FB" fill-opacity="0.25"/>
<path d="M1096.21 610.464L1084.54 603.578L1096.21 596.991L1107.89 603.877L1096.21 610.464Z" fill="#20B1FB" fill-opacity="0.25"/>
<path d="M774.364 674.534L762.688 667.948L774.364 661.361L786.04 667.948L774.364 674.534Z" fill="#20B1FB" fill-opacity="0.25"/>
<path d="M792.923 863.751L781.247 856.865L792.624 850.278L804.3 856.865L792.923 863.751Z" fill="#20B1FB" fill-opacity="0.25"/>
<path d="M793.822 859.259L791.726 855.966L944.118 767.944L824.66 699.083L826.456 695.79L951.603 767.944L793.822 859.259Z" fill="#20B1FB" fill-opacity="0.25"/>
</svg>
