<svg width="61" height="64" viewBox="0 0 61 64" fill="none" xmlns="http://www.w3.org/2000/svg">
<g clip-path="url(#clip0_245_252)">
<path d="M58.7753 35.2077C55.6053 35.3487 52.4242 35.1834 49.2526 35.2806C48.114 35.3163 47.2644 34.9372 46.4356 34.2634C45.99 33.9006 46.2423 33.1619 46.8125 33.1587H46.8236C51.0189 33.1522 55.2109 33.183 59.4029 33.1117C59.6967 33.1069 59.9874 32.8558 60.2748 32.5901C60.5224 32.3634 60.5463 31.9779 60.3291 31.7219C60.0593 31.4028 59.791 31.0983 59.5163 31.0934C54.0068 31.0238 48.4925 31.04 42.9829 31.0821C42.5965 31.087 41.9976 31.4012 41.8874 31.7122C41.7629 32.0621 41.9481 32.7003 42.226 32.9919C43.1698 33.9783 44.2461 34.8352 45.1963 35.8152C46.1322 36.779 47.4337 37.3022 48.7639 37.2131C49.7429 37.1483 50.7314 37.1839 51.7343 37.2001C52.1112 37.2066 52.3954 37.5565 52.3268 37.9355C50.2459 49.4312 37.0758 57.6647 25.6288 54.532C16.4926 52.0294 10.9224 45.7705 9.17049 36.4971C7.38668 27.0618 10.5487 19.1199 18.032 13.1817C22.3917 9.72176 27.4493 8.34168 33.0163 9.0139C33.6854 9.09651 34.9486 8.86488 35.0205 8.56036C35.5523 6.27968 35.8988 3.9585 36.2933 1.58224C36.3524 1.22751 36.1048 0.897068 35.7535 0.858193C33.3325 0.599024 31.159 0.341475 28.9776 0.184354C28.6023 0.158438 28.0162 0.584446 27.8294 0.957001C27.4317 1.7588 27.165 2.64646 26.9638 3.52601C26.646 4.92714 25.7581 5.45196 24.4726 5.96543C22.47 6.76724 20.9784 6.57772 19.5859 4.89474C19.0685 4.26626 18.3722 3.79004 17.6647 3.22635C17.4555 3.06113 17.1681 3.04979 16.9493 3.19719C16.2067 3.69447 15.5615 4.11886 14.9291 4.5643C11.8566 6.7235 11.8805 6.72026 13.2316 10.2952C13.4663 10.9139 13.6995 11.7886 13.4472 12.2972C12.1472 14.9294 10.282 15.7733 7.38828 15.2582C7.15353 15.2161 6.92516 15.1319 6.69201 15.0784C5.57254 14.8274 4.86349 15.1319 4.26942 16.2739C0.626749 23.2698 -0.796143 30.5864 0.81519 38.4101C4.29657 55.3289 19.7711 65.869 35.9116 63.3939C37.2259 63.1915 37.8631 62.6164 37.8216 61.1343C37.7625 59.0075 38.4061 57.2241 40.8766 56.8678C41.164 56.8273 41.4499 56.6831 41.707 56.5357C42.5677 56.0417 43.1778 56.2603 43.8884 56.9682C46.4324 59.4999 46.4659 59.4659 49.4842 57.4395C52.6781 55.2949 52.6478 55.3095 51.2728 51.5969C51.0045 50.8712 50.7442 49.8394 51.0492 49.2531C52.2389 46.9594 53.6554 44.8585 56.8382 45.8191C58.1637 46.2192 59.0404 45.5048 59.339 44.1685C59.8421 41.9315 60.3243 39.6881 60.7571 37.4382C61.0558 35.8735 60.5479 35.13 58.7769 35.2077H58.7753ZM7.80189 18.0152C8.85589 18.0152 9.70867 18.8817 9.70867 19.9492C9.70867 21.0166 8.85429 21.8832 7.80189 21.8832C6.7495 21.8832 5.89672 21.0166 5.89672 19.9492C5.89672 18.8817 6.75109 18.0152 7.80189 18.0152ZM29.1836 59.4432C29.1325 59.7575 28.8626 59.9907 28.5496 59.9729C12.596 59.0448 -0.409679 41.9364 4.72295 24.1396C4.81877 23.8027 5.17809 23.6213 5.50706 23.7298C6.62813 24.1056 6.96189 24.8297 6.6441 26.4365C3.92607 40.2243 11.2114 53.0402 23.8801 56.9811C25.1305 57.3683 26.4161 57.7797 27.7032 57.8623C29.0814 57.9514 29.3337 58.5297 29.1852 59.4416L29.1836 59.4432Z" fill="#003652"/>
</g>
<defs>
<clipPath id="clip0_245_252">
<rect width="60.6781" height="63.5676" fill="white" transform="translate(0.157227 0.184204)"/>
</clipPath>
</defs>
</svg>
