<svg width="1568" height="992" viewBox="0 0 1568 992" fill="none" xmlns="http://www.w3.org/2000/svg">
<path d="M0 77.0516C0 34.4971 34.4972 0 77.0516 0H567.984C599.548 0 627.92 19.2512 639.583 48.5819L645.253 62.8408C656.915 92.1715 685.287 111.423 716.852 111.423H1490.95C1533.5 111.423 1568 145.92 1568 188.474V851.177C1568 875.023 1556.96 897.525 1538.1 912.118L1456.87 974.965C1443.37 985.409 1426.79 991.076 1409.72 991.076H142.693C123.684 991.076 105.347 984.05 91.2053 971.348L25.5639 912.389C9.29359 897.775 0 876.935 0 855.065V77.0516Z" fill="url(#paint0_linear_245_234)"/>
<defs>
<linearGradient id="paint0_linear_245_234" x1="22.1524" y1="30.8206" x2="1746.66" y2="1149.51" gradientUnits="userSpaceOnUse">
<stop stop-color="#89D7FF"/>
<stop offset="1" stop-color="#20B1FB"/>
</linearGradient>
</defs>
</svg>
