<svg width="63" height="66" viewBox="0 0 63 66" fill="none" xmlns="http://www.w3.org/2000/svg">
<g clip-path="url(#clip0_245_252)">
<path d="M60.8611 36.3638C57.5698 36.5101 54.267 36.3385 50.974 36.4394C49.7918 36.4764 48.9097 36.0829 48.0492 35.3833C47.5866 35.0066 47.8486 34.2397 48.4405 34.2363H48.4521C52.8079 34.2296 57.1603 34.2615 61.5127 34.1875C61.8178 34.1825 62.1196 33.9218 62.418 33.646C62.675 33.4105 62.6999 33.0103 62.4744 32.7446C62.1942 32.4132 61.9156 32.0971 61.6305 32.092C55.9101 32.0197 50.1848 32.0365 44.4645 32.0803C44.0632 32.0853 43.4414 32.4116 43.327 32.7345C43.1977 33.0977 43.39 33.7604 43.6785 34.0631C44.6585 35.0873 45.776 35.977 46.7625 36.9944C47.7342 37.9951 49.0855 38.5383 50.4667 38.4458C51.4831 38.3785 52.5094 38.4155 53.5507 38.4324C53.942 38.4391 54.2371 38.8024 54.1658 39.1959C52.0054 51.1315 38.3313 59.68 26.4462 56.4275C16.9604 53.8291 11.1771 47.3307 9.35816 37.7025C7.50609 27.9061 10.7891 19.6603 18.5588 13.4948C23.0853 9.90255 28.3364 8.46967 34.1164 9.16761C34.8112 9.25338 36.1227 9.01288 36.1973 8.69671C36.7495 6.32875 37.1093 3.91875 37.5188 1.45157C37.5802 1.08326 37.3232 0.740179 36.9584 0.699816C34.4447 0.430731 32.1881 0.163327 29.9232 0.000193473C29.5335 -0.0267151 28.925 0.415595 28.731 0.802405C28.3182 1.63489 28.0413 2.55651 27.8324 3.46972C27.5024 4.92446 26.5805 5.46936 25.2458 6.00249C23.1666 6.83497 21.6179 6.6382 20.1721 4.89083C19.6349 4.23829 18.912 3.74385 18.1774 3.15859C17.9602 2.98705 17.6618 2.97527 17.4346 3.12832C16.6636 3.64462 15.9937 4.08525 15.3372 4.54774C12.147 6.78956 12.1719 6.7862 13.5746 10.4979C13.8184 11.1403 14.0604 12.0485 13.7985 12.5766C12.4488 15.3095 10.5122 16.1857 7.50775 15.6509C7.26402 15.6072 7.02691 15.5197 6.78483 15.4642C5.62253 15.2035 4.88634 15.5197 4.26954 16.7054C0.487487 23.969 -0.989853 31.5656 0.683139 39.6887C4.29773 57.2549 20.3644 68.1983 37.1225 65.6285C38.4871 65.4183 39.1487 64.8213 39.1056 63.2824C39.0442 61.0742 39.7124 59.2226 42.2775 58.8526C42.5759 58.8106 42.8727 58.6609 43.1397 58.5078C44.0334 57.9949 44.6667 58.2219 45.4046 58.9569C48.0459 61.5855 48.0807 61.5502 51.2145 59.4463C54.5306 57.2196 54.4991 57.2347 53.0715 53.3801C52.7929 52.6266 52.5227 51.5553 52.8394 50.9465C54.0746 48.5651 55.5453 46.3838 58.8499 47.3811C60.2261 47.7965 61.1363 47.0549 61.4464 45.6674C61.9687 43.3449 62.4694 41.0156 62.9188 38.6796C63.2288 37.055 62.7016 36.283 60.8628 36.3638H60.8611ZM7.93719 18.5133C9.03152 18.5133 9.91693 19.413 9.91693 20.5213C9.91693 21.6296 9.02986 22.5294 7.93719 22.5294C6.84452 22.5294 5.95911 21.6296 5.95911 20.5213C5.95911 19.413 6.84618 18.5133 7.93719 18.5133ZM30.1371 61.5266C30.084 61.8529 29.8038 62.0951 29.4788 62.0766C12.9147 61.1129 -0.5886 43.3499 4.74043 24.8721C4.83992 24.5223 5.21298 24.334 5.55455 24.4466C6.71851 24.8368 7.06505 25.5886 6.73509 27.2569C3.91306 41.5723 11.4772 54.8785 24.6306 58.9703C25.9289 59.3723 27.2636 59.7994 28.6 59.8852C30.031 59.9777 30.2929 60.5781 30.1387 61.525L30.1371 61.5266Z" fill="white"/>
</g>
<defs>
<clipPath id="clip0_245_252">
<rect width="63" height="66" fill="white"/>
</clipPath>
</defs>
</svg>
