<svg width="1628" height="1029" viewBox="0 0 1628 1029" fill="none" xmlns="http://www.w3.org/2000/svg">
<path d="M0 80.0001C0 35.8173 35.8172 0 80 0H589.718C622.49 0 651.948 19.9879 664.057 50.4409L669.943 65.2455C682.052 95.6985 711.51 115.686 744.282 115.686H1548C1592.18 115.686 1628 151.504 1628 195.686V883.748C1628 908.506 1616.54 931.869 1596.96 947.02L1512.62 1012.27C1498.6 1023.12 1481.39 1029 1463.66 1029H148.153C128.417 1029 109.378 1021.7 94.6953 1008.52L26.5421 947.302C9.64923 932.128 0 910.492 0 887.785V80.0001Z" fill="url(#paint0_linear_245_234)"/>
<defs>
<linearGradient id="paint0_linear_245_234" x1="23" y1="32" x2="1813.5" y2="1193.5" gradientUnits="userSpaceOnUse">
<stop stop-color="#89D7FF"/>
<stop offset="1" stop-color="#20B1FB"/>
</linearGradient>
</defs>
</svg>
